<svg width="126" height="134" viewBox="0 0 126 134" fill="none" xmlns="http://www.w3.org/2000/svg">
<path d="M31.3602 119.063C29.2642 116.157 25.5551 115.325 23.9625 115.272C22.935 113.429 21.3425 110.027 23.1919 111.164C25.0413 112.302 30.5382 113.113 33.0555 113.376C41.5321 113.376 39.6827 105.793 36.2921 103.739C33.5795 102.096 25.5037 104.424 21.8048 105.793L20.8801 94.4182C20.1095 93.9442 19.2156 93.2807 21.8048 94.4182C25.0413 95.84 37.3709 98.9997 37.8332 91.8905C38.2031 86.2031 34.2885 84.2355 31.8226 84.2355C26.2205 84.2355 22.5754 85.7818 20.8801 87.309C20.5205 83.7807 20.017 76.9769 20.8801 77.988C21.9589 79.2518 26.7366 80.9897 33.0555 80.9897C38.1107 80.9897 41.6862 77.9162 40.9156 75.7762C34.7509 65.8233 23.1919 71.5107 21.8048 71.5107C20.6951 71.5107 22.2672 64.1382 23.1919 60.4519C23.6542 61.1365 25.8119 62.7901 30.7438 63.9275C36.9085 65.3494 40.8763 61.739 39.6827 56.3444C38.758 52.165 29.5622 52.2895 24.579 53.0267L30.7438 27.7495L25.6578 29.4873L20.8801 53.0267C15.1777 48.1293 9.93761 49.5511 8.85878 49.7091C7.77994 49.8671 2.53987 52.0788 6.39286 57.9242C10.2459 63.7695 22.2672 59.504 20.8801 60.4519C19.7704 61.2102 18.8766 68.1404 18.5683 71.5107C5.77639 67.2452 1.61515 73.2485 0.228077 75.7762C-1.159 78.3039 4.08107 81.3056 7.77994 80.9897C10.739 80.7369 16.2051 78.8832 18.5683 77.988V87.309C17.3354 86.9403 13.4515 86.4243 7.77994 87.309C2.10833 88.1937 1.30691 91.4692 1.61515 92.9963C1.76927 94.7868 3.43376 98.2414 8.85878 97.7358C14.2838 97.2303 17.5922 94.3655 18.5683 92.9963L19.8013 107.215C10.5541 105.193 7.93406 109.005 7.77994 111.164C7.36895 112.534 7.44087 115.746 11.0164 117.642C14.592 119.537 19.082 115.588 20.8801 113.376L22.2672 116.536C20.4691 117.378 16.9963 120.327 17.4895 125.383C18.106 131.702 23.9625 134.546 28.7402 133.914C32.5624 133.408 33.7234 129.596 33.8261 127.753C34.6892 124.846 32.5418 120.749 31.3602 119.063Z" fill="#8BC134"/>
<path d="M111.897 21.9156C109.153 24.1356 108.367 28.0641 108.318 29.7508C106.577 30.839 103.365 32.5258 104.439 30.567C105.513 28.6082 106.279 22.7862 106.528 20.12C106.528 11.1422 99.3679 13.1009 97.4288 16.6921C95.8776 19.565 98.0752 28.1185 99.3679 32.0361L88.6283 33.0155C88.1808 33.8317 87.5544 34.7784 88.6283 32.0361C89.9708 28.6082 92.954 15.5495 86.2417 15.0598C80.8719 14.668 79.0142 18.8141 79.0142 21.4259C79.0142 27.3593 80.4742 31.2199 81.9161 33.0155C78.5848 33.3964 72.1609 33.9296 73.1156 33.0155C74.3088 31.8729 75.9496 26.8126 75.9496 20.12C75.9496 14.7659 73.0478 10.9789 71.0273 11.7951C61.6301 18.3244 66.9999 30.567 66.9999 32.0361C66.9999 33.2114 60.0391 31.5464 56.5587 30.567C57.205 30.0773 58.7662 27.792 59.8402 22.5685C61.1827 16.0391 57.7739 11.8367 52.6805 13.1009C48.7345 14.0804 48.852 23.82 49.5481 29.0979L25.6823 22.5685L27.3231 27.9552L49.5481 33.0155C44.9241 39.0552 46.2665 44.6051 46.4157 45.7478C46.5648 46.8904 48.6531 52.4404 54.1721 48.3595C59.691 44.2787 55.6637 31.5464 56.5587 33.0155C57.2746 34.1908 63.8178 35.1375 66.9999 35.464C62.9726 49.0124 68.6407 53.4198 71.0273 54.8889C73.4139 56.358 76.2479 50.808 75.9496 46.8904C75.711 43.7563 73.9608 37.9669 73.1156 35.464H81.9161C81.568 36.7699 81.0808 40.8834 81.9161 46.8904C82.7514 52.8974 85.844 53.7462 87.2859 53.4198C88.9764 53.2565 92.238 51.4936 91.7607 45.7478C91.2834 40.0019 88.5786 36.4978 87.2859 35.464L100.71 34.1581C98.8011 43.9522 102.401 46.7272 104.439 46.8904C105.732 47.3257 108.765 47.2495 110.555 43.4625C112.345 39.6755 108.616 34.9199 106.528 33.0155L109.511 31.5464C110.306 33.4508 113.091 37.129 117.864 36.6067C123.83 35.9537 126.515 29.7508 125.919 24.6906C125.441 20.6423 121.842 19.4127 120.101 19.3038C117.357 18.3897 113.489 20.6641 111.897 21.9156Z" fill="#8BC134"/>
<path d="M26.8477 29.796C23.1257 20.8031 13.6627 5.8436 5.58661 17.9486C-2.48942 30.0536 16.3957 30.8906 26.8477 29.796Z" fill="#FF9900"/>
<path d="M26.8477 29.796C23.1257 20.8031 13.6627 5.8436 5.58661 17.9486C-2.48942 30.0536 16.3957 30.8906 26.8477 29.796Z" fill="url(#paint0_radial_3051_700)" fill-opacity="0.2"/>
<path d="M28.0285 28.844C33.5294 20.8348 40.9184 4.72837 26.4671 4.37591C12.0158 4.02344 21.4867 20.5411 28.0285 28.844Z" fill="#FF9900"/>
<path d="M28.0285 28.844C33.5294 20.8348 40.9184 4.72837 26.4671 4.37591C12.0158 4.02344 21.4867 20.5411 28.0285 28.844Z" fill="url(#paint1_radial_3051_700)" fill-opacity="0.2"/>
<path d="M26.9598 30.3617C17.3088 30.568 0.0570772 33.985 8.25905 46.0034C16.461 58.0218 24.1437 40.5833 26.9598 30.3617Z" fill="#FF9900"/>
<path d="M26.9598 30.3617C17.3088 30.568 0.0570772 33.985 8.25905 46.0034C16.461 58.0218 24.1437 40.5833 26.9598 30.3617Z" fill="url(#paint2_radial_3051_700)" fill-opacity="0.2"/>
<path d="M29.3197 29.6222C38.9661 29.9857 56.3894 27.5924 48.9108 15.1111C41.4322 2.62973 32.734 19.5846 29.3197 29.6222Z" fill="#FF9900"/>
<path d="M29.3197 29.6222C38.9661 29.9857 56.3894 27.5924 48.9108 15.1111C41.4322 2.62973 32.734 19.5846 29.3197 29.6222Z" fill="url(#paint3_radial_3051_700)" fill-opacity="0.2"/>
<path d="M27.9152 31.99C23.023 40.2302 16.7977 56.559 31.034 55.9525C45.2704 55.346 34.8866 39.7248 27.9152 31.99Z" fill="#FF9900"/>
<path d="M27.9152 31.99C23.023 40.2302 16.7977 56.559 31.034 55.9525C45.2704 55.346 34.8866 39.7248 27.9152 31.99Z" fill="url(#paint4_radial_3051_700)" fill-opacity="0.2"/>
<path d="M28.7966 31.3526C34.022 39.5442 45.9353 52.59 51.7853 39.2396C57.6354 25.8893 38.8971 28.419 28.7966 31.3526Z" fill="#FF9900"/>
<path d="M28.7966 31.3526C34.022 39.5442 45.9353 52.59 51.7853 39.2396C57.6354 25.8893 38.8971 28.419 28.7966 31.3526Z" fill="url(#paint5_radial_3051_700)" fill-opacity="0.3"/>
<path d="M24.6606 103.022C22.9427 98.8175 18.5752 91.8225 14.8478 97.4827C11.1204 103.143 19.8366 103.534 24.6606 103.022Z" fill="#FF9900"/>
<path d="M24.6606 103.022C22.9427 98.8175 18.5752 91.8225 14.8478 97.4827C11.1204 103.143 19.8366 103.534 24.6606 103.022Z" fill="url(#paint6_radial_3051_700)" fill-opacity="0.2"/>
<path d="M25.2056 102.578C27.7444 98.8326 31.1547 91.3013 24.4849 91.1365C17.8151 90.9717 22.1862 98.6952 25.2056 102.578Z" fill="#FF9900"/>
<path d="M25.2056 102.578C27.7444 98.8326 31.1547 91.3013 24.4849 91.1365C17.8151 90.9717 22.1862 98.6952 25.2056 102.578Z" fill="url(#paint7_radial_3051_700)" fill-opacity="0.2"/>
<path d="M24.7123 103.287C20.2579 103.384 12.2956 104.981 16.0811 110.601C19.8667 116.221 23.4125 108.067 24.7123 103.287Z" fill="#FF9900"/>
<path d="M24.7123 103.287C20.2579 103.384 12.2956 104.981 16.0811 110.601C19.8667 116.221 23.4125 108.067 24.7123 103.287Z" fill="url(#paint8_radial_3051_700)" fill-opacity="0.2"/>
<path d="M25.1533 104.048C22.8953 107.901 20.0221 115.536 26.5927 115.253C33.1633 114.969 28.3708 107.665 25.1533 104.048Z" fill="#FF9900"/>
<path d="M25.1533 104.048C22.8953 107.901 20.0221 115.536 26.5927 115.253C33.1633 114.969 28.3708 107.665 25.1533 104.048Z" fill="url(#paint9_radial_3051_700)" fill-opacity="0.2"/>
<path d="M25.4788 103.96C28.0165 107.706 33.7147 113.615 36.2056 107.284C38.6965 100.953 30.0923 102.43 25.4788 103.96Z" fill="#FF9900"/>
<path d="M25.4788 103.96C28.0165 107.706 33.7147 113.615 36.2056 107.284C38.6965 100.953 30.0923 102.43 25.4788 103.96Z" fill="url(#paint10_radial_3051_700)" fill-opacity="0.3"/>
<path d="M26 102.947C30.5241 103.013 38.6316 101.727 34.8692 96.0588C31.1069 90.3903 27.3888 98.2891 26 102.947Z" fill="#FF9900"/>
<path d="M26 102.947C30.5241 103.013 38.6316 101.727 34.8692 96.0588C31.1069 90.3903 27.3888 98.2891 26 102.947Z" fill="url(#paint11_radial_3051_700)" fill-opacity="0.3"/>
<path d="M16.2718 74.6072C15.222 71.9256 12.553 67.4649 10.2751 71.0744C7.99725 74.684 13.3238 74.9336 16.2718 74.6072Z" fill="#FF9900"/>
<path d="M16.2718 74.6072C15.222 71.9256 12.553 67.4649 10.2751 71.0744C7.99725 74.684 13.3238 74.9336 16.2718 74.6072Z" fill="url(#paint12_radial_3051_700)" fill-opacity="0.2"/>
<path d="M16.6049 74.3232C18.1564 71.935 20.2405 67.1322 16.1645 67.0271C12.0885 66.922 14.7597 71.8474 16.6049 74.3232Z" fill="#FF9900"/>
<path d="M16.6049 74.3232C18.1564 71.935 20.2405 67.1322 16.1645 67.0271C12.0885 66.922 14.7597 71.8474 16.6049 74.3232Z" fill="url(#paint13_radial_3051_700)" fill-opacity="0.2"/>
<path d="M16.3035 74.7756C13.5814 74.8371 8.71554 75.856 11.0289 79.4397C13.3423 83.0235 15.5092 77.8235 16.3035 74.7756Z" fill="#FF9900"/>
<path d="M16.3035 74.7756C13.5814 74.8371 8.71554 75.856 11.0289 79.4397C13.3423 83.0235 15.5092 77.8235 16.3035 74.7756Z" fill="url(#paint14_radial_3051_700)" fill-opacity="0.2"/>
<path d="M17.12 74.5116C19.8426 74.5469 24.7416 73.7016 22.5571 70.0379C20.3726 66.3742 18.0222 71.4938 17.12 74.5116Z" fill="#FF9900"/>
<path d="M17.12 74.5116C19.8426 74.5469 24.7416 73.7016 22.5571 70.0379C20.3726 66.3742 18.0222 71.4938 17.12 74.5116Z" fill="url(#paint15_radial_3051_700)" fill-opacity="0.2"/>
<path d="M16.5729 75.2614C15.1931 77.7186 13.4372 82.5876 17.4526 82.4068C21.468 82.2259 18.5392 77.5678 16.5729 75.2614Z" fill="#FF9900"/>
<path d="M16.5729 75.2614C15.1931 77.7186 13.4372 82.5876 17.4526 82.4068C21.468 82.2259 18.5392 77.5678 16.5729 75.2614Z" fill="url(#paint16_radial_3051_700)" fill-opacity="0.2"/>
<path d="M16.772 75.2048C18.3228 77.5935 21.805 81.3617 23.3272 77.3243C24.8494 73.2869 19.5913 74.229 16.772 75.2048Z" fill="#FF9900"/>
<path d="M16.772 75.2048C18.3228 77.5935 21.805 81.3617 23.3272 77.3243C24.8494 73.2869 19.5913 74.229 16.772 75.2048Z" fill="url(#paint17_radial_3051_700)" fill-opacity="0.3"/>
<path d="M68.988 36.634C67.9382 33.9525 65.2691 29.4917 62.9913 33.1013C60.7134 36.7108 66.04 36.9604 68.988 36.634Z" fill="#FF9900"/>
<path d="M68.988 36.634C67.9382 33.9525 65.2691 29.4917 62.9913 33.1013C60.7134 36.7108 66.04 36.9604 68.988 36.634Z" fill="url(#paint18_radial_3051_700)" fill-opacity="0.2"/>
<path d="M69.321 36.3506C70.8725 33.9623 72.9566 29.1596 68.8806 29.0545C64.8046 28.9494 67.4759 33.8747 69.321 36.3506Z" fill="#FF9900"/>
<path d="M69.321 36.3506C70.8725 33.9623 72.9566 29.1596 68.8806 29.0545C64.8046 28.9494 67.4759 33.8747 69.321 36.3506Z" fill="url(#paint19_radial_3051_700)" fill-opacity="0.2"/>
<path d="M69.0197 36.8024C66.2976 36.8639 61.4318 37.8829 63.7452 41.4666C66.0585 45.0503 68.2255 39.8504 69.0197 36.8024Z" fill="#FF9900"/>
<path d="M69.0197 36.8024C66.2976 36.8639 61.4318 37.8829 63.7452 41.4666C66.0585 45.0503 68.2255 39.8504 69.0197 36.8024Z" fill="url(#paint20_radial_3051_700)" fill-opacity="0.2"/>
<path d="M69.9778 36.4111C72.6998 36.4751 77.6075 35.6814 75.4617 31.9949C73.3158 28.3084 70.9117 33.403 69.9778 36.4111Z" fill="#FF9900"/>
<path d="M69.9778 36.4111C72.6998 36.4751 77.6075 35.6814 75.4617 31.9949C73.3158 28.3084 70.9117 33.403 69.9778 36.4111Z" fill="url(#paint21_radial_3051_700)" fill-opacity="0.2"/>
<path d="M69.2892 37.2885C67.9093 39.7457 66.1534 44.6147 70.1688 44.4339C74.1842 44.253 71.2555 39.5949 69.2892 37.2885Z" fill="#FF9900"/>
<path d="M69.2892 37.2885C67.9093 39.7457 66.1534 44.6147 70.1688 44.4339C74.1842 44.253 71.2555 39.5949 69.2892 37.2885Z" fill="url(#paint22_radial_3051_700)" fill-opacity="0.2"/>
<path d="M69.4882 37.2321C71.039 39.6209 74.5212 43.3891 76.0434 39.3517C77.5657 35.3143 72.3075 36.2564 69.4882 37.2321Z" fill="#FF9900"/>
<path d="M69.4882 37.2321C71.039 39.6209 74.5212 43.3891 76.0434 39.3517C77.5657 35.3143 72.3075 36.2564 69.4882 37.2321Z" fill="url(#paint23_radial_3051_700)" fill-opacity="0.3"/>
<path d="M101.821 23.2027C100.294 19.2852 96.4116 12.7686 93.0984 18.0418C89.7851 23.3149 97.5329 23.6795 101.821 23.2027Z" fill="#FF9900"/>
<path d="M101.821 23.2027C100.294 19.2852 96.4116 12.7686 93.0984 18.0418C89.7851 23.3149 97.5329 23.6795 101.821 23.2027Z" fill="url(#paint24_radial_3051_700)" fill-opacity="0.2"/>
<path d="M102.305 22.7885C104.562 19.2996 107.594 12.2833 101.665 12.1298C95.7361 11.9763 99.6216 19.1716 102.305 22.7885Z" fill="#FF9900"/>
<path d="M102.305 22.7885C104.562 19.2996 107.594 12.2833 101.665 12.1298C95.7361 11.9763 99.6216 19.1716 102.305 22.7885Z" fill="url(#paint25_radial_3051_700)" fill-opacity="0.2"/>
<path d="M101.867 23.4489C97.9076 23.5387 90.83 25.0273 94.1949 30.2627C97.5598 35.4981 100.712 27.9016 101.867 23.4489Z" fill="#FF9900"/>
<path d="M101.867 23.4489C97.9076 23.5387 90.83 25.0273 94.1949 30.2627C97.5598 35.4981 100.712 27.9016 101.867 23.4489Z" fill="url(#paint26_radial_3051_700)" fill-opacity="0.2"/>
<path d="M102.778 23.1695C106.733 23.3773 113.903 22.4245 110.94 16.9512C107.978 11.4779 104.265 18.8162 102.778 23.1695Z" fill="#FF9900"/>
<path d="M102.778 23.1695C106.733 23.3773 113.903 22.4245 110.94 16.9512C107.978 11.4779 104.265 18.8162 102.778 23.1695Z" fill="url(#paint27_radial_3051_700)" fill-opacity="0.2"/>
<path d="M102.259 24.1584C100.252 27.748 97.6979 34.8611 103.538 34.5969C109.379 34.3327 105.119 27.5278 102.259 24.1584Z" fill="#FF9900"/>
<path d="M102.259 24.1584C100.252 27.748 97.6979 34.8611 103.538 34.5969C109.379 34.3327 105.119 27.5278 102.259 24.1584Z" fill="url(#paint28_radial_3051_700)" fill-opacity="0.2"/>
<path d="M102.548 24.0765C104.804 27.5662 109.869 33.071 112.083 27.1729C114.297 21.2747 106.649 22.651 102.548 24.0765Z" fill="#FF9900"/>
<path d="M102.548 24.0765C104.804 27.5662 109.869 33.071 112.083 27.1729C114.297 21.2747 106.649 22.651 102.548 24.0765Z" fill="url(#paint29_radial_3051_700)" fill-opacity="0.3"/>
<defs>
<radialGradient id="paint0_radial_3051_700" cx="0" cy="0" r="1" gradientUnits="userSpaceOnUse" gradientTransform="translate(12.8063 19.548) rotate(32.6864) scale(16.0551 11.6361)">
<stop offset="0.489583" stop-color="#FE7D94"/>
<stop offset="1" stop-color="#EA2548"/>
</radialGradient>
<radialGradient id="paint1_radial_3051_700" cx="0" cy="0" r="1" gradientUnits="userSpaceOnUse" gradientTransform="translate(27.9615 14.4221) rotate(51.7654) scale(11.2865 8.87281)">
<stop offset="0.572917" stop-color="#FE7D94"/>
<stop offset="1" stop-color="#EA2548"/>
</radialGradient>
<radialGradient id="paint2_radial_3051_700" cx="0" cy="0" r="1" gradientUnits="userSpaceOnUse" gradientTransform="translate(16.5948 38.4191) rotate(-59.7108) scale(11.5177 9.03213)">
<stop offset="0.697917" stop-color="#FE7D94"/>
<stop offset="1" stop-color="#EA2548"/>
</radialGradient>
<radialGradient id="paint3_radial_3051_700" cx="0" cy="0" r="1" gradientUnits="userSpaceOnUse" gradientTransform="translate(40.1421 22.1904) rotate(123.672) scale(11.5177 9.03213)">
<stop offset="0.697917" stop-color="#FE7D94"/>
<stop offset="1" stop-color="#EA2548"/>
</radialGradient>
<radialGradient id="paint4_radial_3051_700" cx="0" cy="0" r="1" gradientUnits="userSpaceOnUse" gradientTransform="translate(28.9143 46.1702) rotate(-132.028) scale(11.1183 8.75155)">
<stop offset="0.614583" stop-color="#FE7D94"/>
<stop offset="1" stop-color="#EA2548"/>
</radialGradient>
<radialGradient id="paint5_radial_3051_700" cx="0" cy="0" r="1" gradientUnits="userSpaceOnUse" gradientTransform="translate(38.1431 41.8616) rotate(2.7395) scale(36.1213 20.2456)">
<stop offset="0.442708" stop-color="#FE7D94"/>
<stop offset="0.645833" stop-color="#EA2548"/>
</radialGradient>
<radialGradient id="paint6_radial_3051_700" cx="0" cy="0" r="1" gradientUnits="userSpaceOnUse" gradientTransform="translate(18.1799 98.2306) rotate(33.0267) scale(7.4385 5.42011)">
<stop offset="0.489583" stop-color="#FE7D94"/>
<stop offset="1" stop-color="#EA2548"/>
</radialGradient>
<radialGradient id="paint7_radial_3051_700" cx="0" cy="0" r="1" gradientUnits="userSpaceOnUse" gradientTransform="translate(25.1746 95.8341) rotate(52.1278) scale(5.25141 4.11546)">
<stop offset="0.572917" stop-color="#FE7D94"/>
<stop offset="1" stop-color="#EA2548"/>
</radialGradient>
<radialGradient id="paint8_radial_3051_700" cx="0" cy="0" r="1" gradientUnits="userSpaceOnUse" gradientTransform="translate(19.9284 107.055) rotate(-60.0349) scale(5.36794 4.18238)">
<stop offset="0.697917" stop-color="#FE7D94"/>
<stop offset="1" stop-color="#EA2548"/>
</radialGradient>
<radialGradient id="paint9_radial_3051_700" cx="0" cy="0" r="1" gradientUnits="userSpaceOnUse" gradientTransform="translate(25.6143 110.679) rotate(-131.657) scale(5.16876 4.06266)">
<stop offset="0.614583" stop-color="#FE7D94"/>
<stop offset="1" stop-color="#EA2548"/>
</radialGradient>
<radialGradient id="paint10_radial_3051_700" cx="0" cy="0" r="1" gradientUnits="userSpaceOnUse" gradientTransform="translate(29.9535 108.724) rotate(0.819634) scale(16.6714 9.46666)">
<stop offset="0.442708" stop-color="#FE7D94"/>
<stop offset="0.645833" stop-color="#EA2548"/>
</radialGradient>
<radialGradient id="paint11_radial_3051_700" cx="0" cy="0" r="1" gradientUnits="userSpaceOnUse" gradientTransform="translate(32.4681 102.008) rotate(-54.2306) scale(16.6714 9.46666)">
<stop offset="0.442708" stop-color="#FE7D94"/>
<stop offset="0.645833" stop-color="#EA2548"/>
</radialGradient>
<radialGradient id="paint12_radial_3051_700" cx="0" cy="0" r="1" gradientUnits="userSpaceOnUse" gradientTransform="translate(12.3114 71.5514) rotate(34.1515) scale(4.60541 3.41168)">
<stop offset="0.489583" stop-color="#FE7D94"/>
<stop offset="1" stop-color="#EA2548"/>
</radialGradient>
<radialGradient id="paint13_radial_3051_700" cx="0" cy="0" r="1" gradientUnits="userSpaceOnUse" gradientTransform="translate(16.586 70.0228) rotate(53.3042) scale(3.29693 2.55463)">
<stop offset="0.572917" stop-color="#FE7D94"/>
<stop offset="1" stop-color="#EA2548"/>
</radialGradient>
<radialGradient id="paint14_radial_3051_700" cx="0" cy="0" r="1" gradientUnits="userSpaceOnUse" gradientTransform="translate(13.38 77.1782) rotate(-61.0797) scale(3.38813 2.58234)">
<stop offset="0.697917" stop-color="#FE7D94"/>
<stop offset="1" stop-color="#EA2548"/>
</radialGradient>
<radialGradient id="paint15_radial_3051_700" cx="0" cy="0" r="1" gradientUnits="userSpaceOnUse" gradientTransform="translate(20.1271 72.2144) rotate(120.958) scale(3.38813 2.58234)">
<stop offset="0.697917" stop-color="#FE7D94"/>
<stop offset="1" stop-color="#EA2548"/>
</radialGradient>
<radialGradient id="paint16_radial_3051_700" cx="0" cy="0" r="1" gradientUnits="userSpaceOnUse" gradientTransform="translate(16.8547 79.4898) rotate(-130.449) scale(3.23615 2.52878)">
<stop offset="0.614583" stop-color="#FE7D94"/>
<stop offset="1" stop-color="#EA2548"/>
</radialGradient>
<radialGradient id="paint17_radial_3051_700" cx="0" cy="0" r="1" gradientUnits="userSpaceOnUse" gradientTransform="translate(19.5065 78.2428) rotate(0.855303) scale(10.1882 6.03692)">
<stop offset="0.442708" stop-color="#FE7D94"/>
<stop offset="0.645833" stop-color="#EA2548"/>
</radialGradient>
<radialGradient id="paint18_radial_3051_700" cx="0" cy="0" r="1" gradientUnits="userSpaceOnUse" gradientTransform="translate(65.0276 33.5782) rotate(34.1515) scale(4.60541 3.41168)">
<stop offset="0.489583" stop-color="#FE7D94"/>
<stop offset="1" stop-color="#EA2548"/>
</radialGradient>
<radialGradient id="paint19_radial_3051_700" cx="0" cy="0" r="1" gradientUnits="userSpaceOnUse" gradientTransform="translate(69.3021 32.0501) rotate(53.3042) scale(3.29693 2.55463)">
<stop offset="0.572917" stop-color="#FE7D94"/>
<stop offset="1" stop-color="#EA2548"/>
</radialGradient>
<radialGradient id="paint20_radial_3051_700" cx="0" cy="0" r="1" gradientUnits="userSpaceOnUse" gradientTransform="translate(66.0963 39.2051) rotate(-61.0797) scale(3.38813 2.58234)">
<stop offset="0.697917" stop-color="#FE7D94"/>
<stop offset="1" stop-color="#EA2548"/>
</radialGradient>
<radialGradient id="paint21_radial_3051_700" cx="0" cy="0" r="1" gradientUnits="userSpaceOnUse" gradientTransform="translate(73.0089 34.1457) rotate(121.561) scale(3.38813 2.58234)">
<stop offset="0.697917" stop-color="#FE7D94"/>
<stop offset="1" stop-color="#EA2548"/>
</radialGradient>
<radialGradient id="paint22_radial_3051_700" cx="0" cy="0" r="1" gradientUnits="userSpaceOnUse" gradientTransform="translate(69.5709 41.5169) rotate(-130.449) scale(3.23615 2.52878)">
<stop offset="0.614583" stop-color="#FE7D94"/>
<stop offset="1" stop-color="#EA2548"/>
</radialGradient>
<radialGradient id="paint23_radial_3051_700" cx="0" cy="0" r="1" gradientUnits="userSpaceOnUse" gradientTransform="translate(72.2227 40.2701) rotate(0.855303) scale(10.1882 6.03692)">
<stop offset="0.442708" stop-color="#FE7D94"/>
<stop offset="0.645833" stop-color="#EA2548"/>
</radialGradient>
<radialGradient id="paint24_radial_3051_700" cx="0" cy="0" r="1" gradientUnits="userSpaceOnUse" gradientTransform="translate(96.0603 18.7385) rotate(34.2672) scale(6.70799 4.97721)">
<stop offset="0.489583" stop-color="#FE7D94"/>
<stop offset="1" stop-color="#EA2548"/>
</radialGradient>
<radialGradient id="paint25_radial_3051_700" cx="0" cy="0" r="1" gradientUnits="userSpaceOnUse" gradientTransform="translate(102.278 16.5061) rotate(53.4234) scale(4.80897 3.72159)">
<stop offset="0.572917" stop-color="#FE7D94"/>
<stop offset="1" stop-color="#EA2548"/>
</radialGradient>
<radialGradient id="paint26_radial_3051_700" cx="0" cy="0" r="1" gradientUnits="userSpaceOnUse" gradientTransform="translate(97.6147 26.9588) rotate(-61.1849) scale(4.94463 3.75995)">
<stop offset="0.697917" stop-color="#FE7D94"/>
<stop offset="1" stop-color="#EA2548"/>
</radialGradient>
<radialGradient id="paint27_radial_3051_700" cx="0" cy="0" r="1" gradientUnits="userSpaceOnUse" gradientTransform="translate(107.282 19.9889) rotate(123.122) scale(4.94463 3.75995)">
<stop offset="0.697917" stop-color="#FE7D94"/>
<stop offset="1" stop-color="#EA2548"/>
</radialGradient>
<radialGradient id="paint28_radial_3051_700" cx="0" cy="0" r="1" gradientUnits="userSpaceOnUse" gradientTransform="translate(102.669 30.3355) rotate(-130.326) scale(4.71901 3.68495)">
<stop offset="0.614583" stop-color="#FE7D94"/>
<stop offset="1" stop-color="#EA2548"/>
</radialGradient>
<radialGradient id="paint29_radial_3051_700" cx="0" cy="0" r="1" gradientUnits="userSpaceOnUse" gradientTransform="translate(106.526 28.5146) rotate(0.859023) scale(14.8192 8.8192)">
<stop offset="0.442708" stop-color="#FE7D94"/>
<stop offset="0.645833" stop-color="#EA2548"/>
</radialGradient>
</defs>
</svg>
