<svg width="135" height="127" viewBox="0 0 135 127" fill="none" xmlns="http://www.w3.org/2000/svg">
<path d="M119.23 94.6659C116.327 96.7671 115.502 100.478 115.452 102.07C113.61 103.101 110.211 104.7 111.346 102.848C112.48 100.997 113.281 95.4984 113.54 92.9807C113.525 84.5041 105.945 86.3669 103.897 89.7612C102.259 92.4766 104.601 100.548 105.977 104.245L94.6035 105.19C94.1309 105.961 93.469 106.856 94.6019 104.265C96.018 101.026 99.1559 88.6907 92.0459 88.2409C86.3578 87.881 84.3972 91.7991 84.4015 94.265C84.4114 99.8671 85.9641 103.509 87.4943 105.202C83.9666 105.568 77.1638 106.083 78.1733 105.219C79.4353 104.137 81.1647 99.3567 81.1535 93.0378C81.1446 87.9827 78.0648 84.4125 75.9262 85.1869C65.9842 91.3692 71.692 102.918 71.6944 104.305C71.6964 105.415 64.3211 103.856 60.6332 102.938C61.317 102.474 62.9667 100.314 64.0955 95.3797C65.5065 89.2124 61.8891 85.251 56.4966 86.4541C52.3188 87.3862 52.4595 96.5818 53.2056 101.564L27.9175 95.4435L29.6643 100.526L53.2121 105.263C48.3247 110.974 49.7558 116.211 49.9157 117.29C50.0756 118.368 52.2966 123.604 58.1351 119.741C63.9737 115.878 59.6869 103.864 60.6373 105.249C61.3976 106.358 68.3293 107.239 71.7001 107.542C67.4572 120.341 73.4678 124.492 75.998 125.874C78.5282 127.257 81.5206 122.012 81.1981 118.313C80.9401 115.355 79.0768 109.892 78.1774 107.53L87.4984 107.514C87.1319 108.747 86.6227 112.632 87.5174 118.302C88.4121 123.972 91.689 124.768 93.2156 124.457C95.0058 124.3 98.4574 122.629 97.9423 117.205C97.4272 111.781 94.5566 108.477 93.1857 107.504L107.402 106.246C105.396 115.496 109.213 118.11 111.373 118.26C112.743 118.669 115.955 118.591 117.844 115.012C119.734 111.433 115.776 106.95 113.561 105.156L116.719 103.763C117.564 105.56 120.519 109.028 125.574 108.526C131.892 107.898 134.726 102.036 134.085 97.2597C133.573 93.4385 129.758 92.2842 127.915 92.1847C125.007 91.3267 120.913 93.4814 119.23 94.6659Z" fill="#8BC134"/>
<path d="M21.9404 14.3003C24.1652 17.0409 28.0951 17.8196 29.7819 17.8663C30.8732 19.6046 32.5656 22.8136 30.6049 21.7431C28.6442 20.6726 22.8209 19.9171 20.1543 19.6732C11.1764 19.6891 13.1478 26.8453 16.7424 28.7781C19.6181 30.3243 28.1677 28.1116 32.083 26.8119L33.0813 37.5498C33.8983 37.9958 34.8461 38.6207 32.1019 37.5515C28.6717 36.2151 15.6077 33.2549 15.1298 39.9681C14.7475 45.3385 18.8969 47.189 21.5087 47.1844C27.442 47.1739 31.3001 45.7071 33.0932 44.262C33.4799 47.5926 34.0245 54.0156 33.1087 53.0625C31.9639 51.8713 26.9008 50.2394 20.2082 50.2512C14.8541 50.2607 11.0722 53.1692 11.892 55.1882C18.4379 64.5739 30.671 59.1825 32.1401 59.1799C33.3154 59.1778 31.6627 66.1416 30.6894 69.6237C30.1986 68.9782 27.9105 67.4211 22.6851 66.3563C16.1534 65.0254 11.957 68.4416 13.2302 73.5327C14.2166 77.477 23.956 77.3423 29.2326 76.6369L22.7454 100.514L28.1292 98.8639L33.1503 76.63C39.1981 81.2433 44.7457 79.8911 45.888 79.7399C47.0304 79.5887 52.5767 77.4907 48.4861 71.9789C44.3955 66.4672 31.6704 70.517 33.1379 69.6194C34.3119 68.9014 35.2471 62.3565 35.568 59.1738C49.1235 63.1773 53.5208 57.5014 54.9857 55.1122C56.4506 52.723 50.8957 49.8988 46.9786 50.204C43.8449 50.4482 38.0586 52.2086 35.5572 53.0582L35.5417 44.2577C36.8482 44.6035 40.9625 45.0835 46.968 44.2376C52.9736 43.3917 53.8169 40.2976 53.4879 38.8562C53.3217 37.166 51.553 33.9075 45.808 34.395C40.063 34.8824 36.5637 37.5934 35.5322 38.8879L34.2026 25.4657C44 27.3577 46.7687 23.7531 46.9283 21.7143C47.3613 20.4208 47.2798 17.3879 43.4896 15.6047C39.6994 13.8215 34.9504 17.5589 33.0497 19.6505L31.5754 16.6699C33.4784 15.871 37.1516 13.0801 36.6209 8.3079C35.9574 2.34261 29.7498 -0.331339 24.6906 0.274233C20.6432 0.758691 19.4199 4.36061 19.3141 6.10102C18.4049 8.84719 20.6861 12.7114 21.9404 14.3003Z" fill="#8BC134"/>
<path d="M29.9708 99.3359C20.9845 103.074 6.0417 112.563 18.1609 120.618C30.2802 128.673 31.0839 109.786 29.9708 99.3359Z" fill="#FF9900"/>
<path d="M29.9708 99.3359C20.9845 103.074 6.0417 112.563 18.1609 120.618C30.2802 128.673 31.0839 109.786 29.9708 99.3359Z" fill="url(#paint0_radial_3064_761)" fill-opacity="0.2"/>
<path d="M29.0167 98.1568C20.9979 92.67 4.87838 85.3094 4.55141 99.7613C4.22445 114.213 20.7254 104.713 29.0167 98.1568Z" fill="#FF9900"/>
<path d="M29.0167 98.1568C20.9979 92.67 4.87838 85.3094 4.55141 99.7613C4.22445 114.213 20.7254 104.713 29.0167 98.1568Z" fill="url(#paint1_radial_3064_761)" fill-opacity="0.2"/>
<path d="M30.5363 99.2229C30.7596 108.874 34.2071 126.119 46.211 117.896C58.2148 109.673 40.7628 102.021 30.5363 99.2229Z" fill="#FF9900"/>
<path d="M30.5363 99.2229C30.7596 108.874 34.2071 126.119 46.211 117.896C58.2148 109.673 40.7628 102.021 30.5363 99.2229Z" fill="url(#paint2_radial_3064_761)" fill-opacity="0.2"/>
<path d="M29.7926 96.8643C30.1391 87.2172 27.7151 69.7982 15.247 77.2988C2.77886 84.7994 19.749 93.4677 29.7926 96.8643Z" fill="#FF9900"/>
<path d="M29.7926 96.8643C30.1391 87.2172 27.7151 69.7982 15.247 77.2988C2.77886 84.7994 19.749 93.4677 29.7926 96.8643Z" fill="url(#paint3_radial_3064_761)" fill-opacity="0.2"/>
<path d="M32.163 98.2645C40.4118 103.142 56.7516 109.339 56.12 95.1034C55.4884 80.8682 39.8855 91.2795 32.163 98.2645Z" fill="#FF9900"/>
<path d="M32.163 98.2645C40.4118 103.142 56.7516 109.339 56.12 95.1034C55.4884 80.8682 39.8855 91.2795 32.163 98.2645Z" fill="url(#paint4_radial_3064_761)" fill-opacity="0.2"/>
<path d="M31.5242 97.3843C39.7066 92.1445 52.7312 80.2082 39.3706 74.3817C26.01 68.5552 28.5727 87.2891 31.5242 97.3843Z" fill="#FF9900"/>
<path d="M31.5242 97.3843C39.7066 92.1445 52.7312 80.2082 39.3706 74.3817C26.01 68.5552 28.5727 87.2891 31.5242 97.3843Z" fill="url(#paint5_radial_3064_761)" fill-opacity="0.3"/>
<path d="M103.201 101.394C98.9992 103.119 92.012 107.499 97.6788 111.216C103.346 114.934 103.722 106.217 103.201 101.394Z" fill="#FF9900"/>
<path d="M103.201 101.394C98.9992 103.119 92.012 107.499 97.6788 111.216C103.346 114.934 103.722 106.217 103.201 101.394Z" fill="url(#paint6_radial_3064_761)" fill-opacity="0.2"/>
<path d="M102.755 100.85C99.0057 98.3174 91.4685 94.9204 91.3155 101.591C91.1624 108.261 98.8782 103.876 102.755 100.85Z" fill="#FF9900"/>
<path d="M102.755 100.85C99.0057 98.3174 91.4685 94.9204 91.3155 101.591C91.1624 108.261 98.8782 103.876 102.755 100.85Z" fill="url(#paint7_radial_3064_761)" fill-opacity="0.2"/>
<path d="M103.466 101.342C103.57 105.796 105.182 113.755 110.795 109.96C116.408 106.165 108.248 102.633 103.466 101.342Z" fill="#FF9900"/>
<path d="M103.466 101.342C103.57 105.796 105.182 113.755 110.795 109.96C116.408 106.165 108.248 102.633 103.466 101.342Z" fill="url(#paint8_radial_3064_761)" fill-opacity="0.2"/>
<path d="M104.226 100.899C108.083 103.151 115.723 106.01 115.428 99.4401C115.133 92.87 107.837 97.6754 104.226 100.899Z" fill="#FF9900"/>
<path d="M104.226 100.899C108.083 103.151 115.723 106.01 115.428 99.4401C115.133 92.87 107.837 97.6754 104.226 100.899Z" fill="url(#paint9_radial_3064_761)" fill-opacity="0.2"/>
<path d="M104.137 100.574C107.879 98.0297 113.778 92.3212 107.442 89.8414C101.107 87.3617 102.599 95.9633 104.137 100.574Z" fill="#FF9900"/>
<path d="M104.137 100.574C107.879 98.0297 113.778 92.3212 107.442 89.8414C101.107 87.3617 102.599 95.9633 104.137 100.574Z" fill="url(#paint10_radial_3064_761)" fill-opacity="0.3"/>
<path d="M103.123 100.055C103.181 95.5304 101.881 87.4252 96.2195 91.1975C90.5576 94.9699 98.4629 98.674 103.123 100.055Z" fill="#FF9900"/>
<path d="M103.123 100.055C103.181 95.5304 101.881 87.4252 96.2195 91.1975C90.5576 94.9699 98.4629 98.674 103.123 100.055Z" fill="url(#paint11_radial_3064_761)" fill-opacity="0.3"/>
<path d="M74.8005 109.833C72.1208 110.887 67.6648 113.564 71.2784 115.836C74.8919 118.107 75.1321 112.78 74.8005 109.833Z" fill="#FF9900"/>
<path d="M74.8005 109.833C72.1208 110.887 67.6648 113.564 71.2784 115.836C74.8919 118.107 75.1321 112.78 74.8005 109.833Z" fill="url(#paint12_radial_3064_761)" fill-opacity="0.2"/>
<path d="M74.5162 109.5C72.1252 107.953 67.3188 105.877 67.2209 109.954C67.123 114.03 72.0436 111.35 74.5162 109.5Z" fill="#FF9900"/>
<path d="M74.5162 109.5C72.1252 107.953 67.3188 105.877 67.2209 109.954C67.123 114.03 72.0436 111.35 74.5162 109.5Z" fill="url(#paint13_radial_3064_761)" fill-opacity="0.2"/>
<path d="M74.9691 109.801C75.0354 112.523 76.063 117.387 79.6426 115.067C83.2222 112.747 78.0185 110.59 74.9691 109.801Z" fill="#FF9900"/>
<path d="M74.9691 109.801C75.0354 112.523 76.063 117.387 79.6426 115.067C83.2222 112.747 78.0185 110.59 74.9691 109.801Z" fill="url(#paint14_radial_3064_761)" fill-opacity="0.2"/>
<path d="M74.7036 108.985C74.7341 106.262 73.8802 101.365 70.2203 103.556C66.5605 105.747 71.6842 108.088 74.7036 108.985Z" fill="#FF9900"/>
<path d="M74.7036 108.985C74.7341 106.262 73.8802 101.365 70.2203 103.556C66.5605 105.747 71.6842 108.088 74.7036 108.985Z" fill="url(#paint15_radial_3064_761)" fill-opacity="0.2"/>
<path d="M75.4543 109.531C77.9139 110.906 82.786 112.653 82.5981 108.638C82.4102 104.623 77.7573 107.56 75.4543 109.531Z" fill="#FF9900"/>
<path d="M75.4543 109.531C77.9139 110.906 82.786 112.653 82.5981 108.638C82.4102 104.623 77.7573 107.56 75.4543 109.531Z" fill="url(#paint16_radial_3064_761)" fill-opacity="0.2"/>
<path d="M75.3974 109.332C77.7835 107.777 81.5455 104.288 77.5054 102.773C73.4654 101.257 74.4167 106.514 75.3974 109.332Z" fill="#FF9900"/>
<path d="M75.3974 109.332C77.7835 107.777 81.5455 104.288 77.5054 102.773C73.4654 101.257 74.4167 106.514 75.3974 109.332Z" fill="url(#paint17_radial_3064_761)" fill-opacity="0.3"/>
<path d="M36.7347 57.1837C34.055 58.2382 29.5989 60.9152 33.2125 63.1866C36.8261 65.4581 37.0663 60.1311 36.7347 57.1837Z" fill="#FF9900"/>
<path d="M36.7347 57.1837C34.055 58.2382 29.5989 60.9152 33.2125 63.1866C36.8261 65.4581 37.0663 60.1311 36.7347 57.1837Z" fill="url(#paint18_radial_3064_761)" fill-opacity="0.2"/>
<path d="M36.4506 56.8512C34.0596 55.3039 29.2532 53.2283 29.1553 57.3045C29.0574 61.3806 33.978 58.7007 36.4506 56.8512Z" fill="#FF9900"/>
<path d="M36.4506 56.8512C34.0596 55.3039 29.2532 53.2283 29.1553 57.3045C29.0574 61.3806 33.978 58.7007 36.4506 56.8512Z" fill="url(#paint19_radial_3064_761)" fill-opacity="0.2"/>
<path d="M36.903 57.1516C36.9693 59.8736 37.9969 64.7376 41.5765 62.4179C45.1561 60.0982 39.9524 57.9405 36.903 57.1516Z" fill="#FF9900"/>
<path d="M36.903 57.1516C36.9693 59.8736 37.9969 64.7376 41.5765 62.4179C45.1561 60.0982 39.9524 57.9405 36.903 57.1516Z" fill="url(#paint20_radial_3064_761)" fill-opacity="0.2"/>
<path d="M36.5098 56.1942C36.5689 53.4721 35.7666 48.5658 32.0839 50.7182C28.4012 52.8705 33.5 55.2657 36.5098 56.1942Z" fill="#FF9900"/>
<path d="M36.5098 56.1942C36.5689 53.4721 35.7666 48.5658 32.0839 50.7182C28.4012 52.8705 33.5 55.2657 36.5098 56.1942Z" fill="url(#paint21_radial_3064_761)" fill-opacity="0.2"/>
<path d="M37.3885 56.8814C39.848 58.2569 44.7202 60.0042 44.5322 55.9891C44.3443 51.9741 39.6914 54.911 37.3885 56.8814Z" fill="#FF9900"/>
<path d="M37.3885 56.8814C39.848 58.2569 44.7202 60.0042 44.5322 55.9891C44.3443 51.9741 39.6914 54.911 37.3885 56.8814Z" fill="url(#paint22_radial_3064_761)" fill-opacity="0.2"/>
<path d="M37.3318 56.6825C39.7178 55.1275 43.4799 51.6387 39.4398 50.1235C35.3997 48.6084 36.3511 53.8649 37.3318 56.6825Z" fill="#FF9900"/>
<path d="M37.3318 56.6825C39.7178 55.1275 43.4799 51.6387 39.4398 50.1235C35.3997 48.6084 36.3511 53.8649 37.3318 56.6825Z" fill="url(#paint23_radial_3064_761)" fill-opacity="0.3"/>
<path d="M23.2452 24.3744C19.3305 25.9083 12.8207 29.8021 18.0997 33.1061C23.3787 36.41 23.7296 28.6616 23.2452 24.3744Z" fill="#FF9900"/>
<path d="M23.2452 24.3744C19.3305 25.9083 12.8207 29.8021 18.0997 33.1061C23.3787 36.41 23.7296 28.6616 23.2452 24.3744Z" fill="url(#paint24_radial_3064_761)" fill-opacity="0.2"/>
<path d="M22.8302 23.8907C19.3373 21.6401 12.3157 18.6211 12.1727 24.5501C12.0296 30.4791 19.2181 26.5809 22.8302 23.8907Z" fill="#FF9900"/>
<path d="M22.8302 23.8907C19.3373 21.6401 12.3157 18.6211 12.1727 24.5501C12.0296 30.4791 19.2181 26.5809 22.8302 23.8907Z" fill="url(#paint25_radial_3064_761)" fill-opacity="0.2"/>
<path d="M23.4914 24.3279C23.5882 28.2872 25.0893 35.3622 30.3187 31.988C35.5481 28.6139 27.9461 25.4754 23.4914 24.3279Z" fill="#FF9900"/>
<path d="M23.4914 24.3279C23.5882 28.2872 25.0893 35.3622 30.3187 31.988C35.5481 28.6139 27.9461 25.4754 23.4914 24.3279Z" fill="url(#paint26_radial_3064_761)" fill-opacity="0.2"/>
<path d="M23.2104 23.4173C23.4112 19.4619 22.4458 12.2942 16.9777 15.266C11.5096 18.2379 18.8544 21.9384 23.2104 23.4173Z" fill="#FF9900"/>
<path d="M23.2104 23.4173C23.4112 19.4619 22.4458 12.2942 16.9777 15.266C11.5096 18.2379 18.8544 21.9384 23.2104 23.4173Z" fill="url(#paint27_radial_3064_761)" fill-opacity="0.2"/>
<path d="M24.2003 23.9348C27.7934 25.9355 34.911 28.477 34.6365 22.6369C34.362 16.7968 27.5647 21.0688 24.2003 23.9348Z" fill="#FF9900"/>
<path d="M24.2003 23.9348C27.7934 25.9355 34.911 28.477 34.6365 22.6369C34.362 16.7968 27.5647 21.0688 24.2003 23.9348Z" fill="url(#paint28_radial_3064_761)" fill-opacity="0.2"/>
<path d="M24.1177 23.6455C27.6034 21.3836 33.0993 16.3089 27.1973 14.1052C21.2952 11.9014 22.685 19.5472 24.1177 23.6455Z" fill="#FF9900"/>
<path d="M24.1177 23.6455C27.6034 21.3836 33.0993 16.3089 27.1973 14.1052C21.2952 11.9014 22.685 19.5472 24.1177 23.6455Z" fill="url(#paint29_radial_3064_761)" fill-opacity="0.3"/>
<defs>
<radialGradient id="paint0_radial_3064_761" cx="0" cy="0" r="1" gradientUnits="userSpaceOnUse" gradientTransform="translate(19.7476 113.395) rotate(-57.4147) scale(16.0551 11.6361)">
<stop offset="0.489583" stop-color="#FE7D94"/>
<stop offset="1" stop-color="#EA2548"/>
</radialGradient>
<radialGradient id="paint1_radial_3064_761" cx="0" cy="0" r="1" gradientUnits="userSpaceOnUse" gradientTransform="translate(14.595 98.2492) rotate(-38.3357) scale(11.2865 8.87281)">
<stop offset="0.572917" stop-color="#FE7D94"/>
<stop offset="1" stop-color="#EA2548"/>
</radialGradient>
<radialGradient id="paint2_radial_3064_761" cx="0" cy="0" r="1" gradientUnits="userSpaceOnUse" gradientTransform="translate(38.612 109.574) rotate(-149.812) scale(11.5177 9.03213)">
<stop offset="0.697917" stop-color="#FE7D94"/>
<stop offset="1" stop-color="#EA2548"/>
</radialGradient>
<radialGradient id="paint3_radial_3064_761" cx="0" cy="0" r="1" gradientUnits="userSpaceOnUse" gradientTransform="translate(22.3417 86.055) rotate(33.5706) scale(11.5177 9.03213)">
<stop offset="0.697917" stop-color="#FE7D94"/>
<stop offset="1" stop-color="#EA2548"/>
</radialGradient>
<radialGradient id="paint4_radial_3064_761" cx="0" cy="0" r="1" gradientUnits="userSpaceOnUse" gradientTransform="translate(46.3414 97.2405) rotate(137.87) scale(11.1183 8.75155)">
<stop offset="0.614583" stop-color="#FE7D94"/>
<stop offset="1" stop-color="#EA2548"/>
</radialGradient>
<radialGradient id="paint5_radial_3064_761" cx="0" cy="0" r="1" gradientUnits="userSpaceOnUse" gradientTransform="translate(42.0167 88.0193) rotate(-87.3616) scale(36.1213 20.2456)">
<stop offset="0.442708" stop-color="#FE7D94"/>
<stop offset="0.645833" stop-color="#EA2548"/>
</radialGradient>
<radialGradient id="paint6_radial_3064_761" cx="0" cy="0" r="1" gradientUnits="userSpaceOnUse" gradientTransform="translate(98.4208 107.883) rotate(-57.0744) scale(7.4385 5.42011)">
<stop offset="0.489583" stop-color="#FE7D94"/>
<stop offset="1" stop-color="#EA2548"/>
</radialGradient>
<radialGradient id="paint7_radial_3064_761" cx="0" cy="0" r="1" gradientUnits="userSpaceOnUse" gradientTransform="translate(96.0118 100.893) rotate(-37.9733) scale(5.25141 4.11546)">
<stop offset="0.572917" stop-color="#FE7D94"/>
<stop offset="1" stop-color="#EA2548"/>
</radialGradient>
<radialGradient id="paint8_radial_3064_761" cx="0" cy="0" r="1" gradientUnits="userSpaceOnUse" gradientTransform="translate(107.242 106.119) rotate(-150.136) scale(5.36794 4.18238)">
<stop offset="0.697917" stop-color="#FE7D94"/>
<stop offset="1" stop-color="#EA2548"/>
</radialGradient>
<radialGradient id="paint9_radial_3064_761" cx="0" cy="0" r="1" gradientUnits="userSpaceOnUse" gradientTransform="translate(110.855 100.427) rotate(138.241) scale(5.16876 4.06266)">
<stop offset="0.614583" stop-color="#FE7D94"/>
<stop offset="1" stop-color="#EA2548"/>
</radialGradient>
<radialGradient id="paint10_radial_3064_761" cx="0" cy="0" r="1" gradientUnits="userSpaceOnUse" gradientTransform="translate(108.893 96.0909) rotate(-89.2815) scale(16.6714 9.46666)">
<stop offset="0.442708" stop-color="#FE7D94"/>
<stop offset="0.645833" stop-color="#EA2548"/>
</radialGradient>
<radialGradient id="paint11_radial_3064_761" cx="0" cy="0" r="1" gradientUnits="userSpaceOnUse" gradientTransform="translate(102.173 93.5881) rotate(-144.332) scale(16.6714 9.46666)">
<stop offset="0.442708" stop-color="#FE7D94"/>
<stop offset="0.645833" stop-color="#EA2548"/>
</radialGradient>
<radialGradient id="paint12_radial_3064_761" cx="0" cy="0" r="1" gradientUnits="userSpaceOnUse" gradientTransform="translate(71.7517 113.799) rotate(-55.9496) scale(4.60541 3.41168)">
<stop offset="0.489583" stop-color="#FE7D94"/>
<stop offset="1" stop-color="#EA2548"/>
</radialGradient>
<radialGradient id="paint13_radial_3064_761" cx="0" cy="0" r="1" gradientUnits="userSpaceOnUse" gradientTransform="translate(70.2158 109.527) rotate(-36.7969) scale(3.29693 2.55463)">
<stop offset="0.572917" stop-color="#FE7D94"/>
<stop offset="1" stop-color="#EA2548"/>
</radialGradient>
<radialGradient id="paint14_radial_3064_761" cx="0" cy="0" r="1" gradientUnits="userSpaceOnUse" gradientTransform="translate(77.3769 112.72) rotate(-151.181) scale(3.38813 2.58234)">
<stop offset="0.697917" stop-color="#FE7D94"/>
<stop offset="1" stop-color="#EA2548"/>
</radialGradient>
<radialGradient id="paint15_radial_3064_761" cx="0" cy="0" r="1" gradientUnits="userSpaceOnUse" gradientTransform="translate(72.4011 105.982) rotate(30.8568) scale(3.38813 2.58234)">
<stop offset="0.697917" stop-color="#FE7D94"/>
<stop offset="1" stop-color="#EA2548"/>
</radialGradient>
<radialGradient id="paint16_radial_3064_761" cx="0" cy="0" r="1" gradientUnits="userSpaceOnUse" gradientTransform="translate(79.6822 109.241) rotate(139.45) scale(3.23615 2.52878)">
<stop offset="0.614583" stop-color="#FE7D94"/>
<stop offset="1" stop-color="#EA2548"/>
</radialGradient>
<radialGradient id="paint17_radial_3064_761" cx="0" cy="0" r="1" gradientUnits="userSpaceOnUse" gradientTransform="translate(78.4306 106.592) rotate(-89.2458) scale(10.1882 6.03692)">
<stop offset="0.442708" stop-color="#FE7D94"/>
<stop offset="0.645833" stop-color="#EA2548"/>
</radialGradient>
<radialGradient id="paint18_radial_3064_761" cx="0" cy="0" r="1" gradientUnits="userSpaceOnUse" gradientTransform="translate(33.6859 61.1495) rotate(-55.9496) scale(4.60541 3.41168)">
<stop offset="0.489583" stop-color="#FE7D94"/>
<stop offset="1" stop-color="#EA2548"/>
</radialGradient>
<radialGradient id="paint19_radial_3064_761" cx="0" cy="0" r="1" gradientUnits="userSpaceOnUse" gradientTransform="translate(32.1502 56.8777) rotate(-36.7969) scale(3.29693 2.55463)">
<stop offset="0.572917" stop-color="#FE7D94"/>
<stop offset="1" stop-color="#EA2548"/>
</radialGradient>
<radialGradient id="paint20_radial_3064_761" cx="0" cy="0" r="1" gradientUnits="userSpaceOnUse" gradientTransform="translate(39.3108 60.0708) rotate(-151.181) scale(3.38813 2.58234)">
<stop offset="0.697917" stop-color="#FE7D94"/>
<stop offset="1" stop-color="#EA2548"/>
</radialGradient>
<radialGradient id="paint21_radial_3064_761" cx="0" cy="0" r="1" gradientUnits="userSpaceOnUse" gradientTransform="translate(34.2391 53.1672) rotate(31.4597) scale(3.38813 2.58234)">
<stop offset="0.697917" stop-color="#FE7D94"/>
<stop offset="1" stop-color="#EA2548"/>
</radialGradient>
<radialGradient id="paint22_radial_3064_761" cx="0" cy="0" r="1" gradientUnits="userSpaceOnUse" gradientTransform="translate(41.6163 56.5922) rotate(139.45) scale(3.23615 2.52878)">
<stop offset="0.614583" stop-color="#FE7D94"/>
<stop offset="1" stop-color="#EA2548"/>
</radialGradient>
<radialGradient id="paint23_radial_3064_761" cx="0" cy="0" r="1" gradientUnits="userSpaceOnUse" gradientTransform="translate(40.365 53.9426) rotate(-89.2458) scale(10.1882 6.03692)">
<stop offset="0.442708" stop-color="#FE7D94"/>
<stop offset="0.645833" stop-color="#EA2548"/>
</radialGradient>
<radialGradient id="paint24_radial_3064_761" cx="0" cy="0" r="1" gradientUnits="userSpaceOnUse" gradientTransform="translate(18.7912 30.1429) rotate(-55.8339) scale(6.70799 4.97721)">
<stop offset="0.489583" stop-color="#FE7D94"/>
<stop offset="1" stop-color="#EA2548"/>
</radialGradient>
<radialGradient id="paint25_radial_3064_761" cx="0" cy="0" r="1" gradientUnits="userSpaceOnUse" gradientTransform="translate(16.5479 23.9293) rotate(-36.6777) scale(4.80897 3.72159)">
<stop offset="0.572917" stop-color="#FE7D94"/>
<stop offset="1" stop-color="#EA2548"/>
</radialGradient>
<radialGradient id="paint26_radial_3064_761" cx="0" cy="0" r="1" gradientUnits="userSpaceOnUse" gradientTransform="translate(27.0088 28.5741) rotate(-151.286) scale(4.94463 3.75995)">
<stop offset="0.697917" stop-color="#FE7D94"/>
<stop offset="1" stop-color="#EA2548"/>
</radialGradient>
<radialGradient id="paint27_radial_3064_761" cx="0" cy="0" r="1" gradientUnits="userSpaceOnUse" gradientTransform="translate(20.0218 18.9189) rotate(33.0214) scale(4.94463 3.75995)">
<stop offset="0.697917" stop-color="#FE7D94"/>
<stop offset="1" stop-color="#EA2548"/>
</radialGradient>
<radialGradient id="paint28_radial_3064_761" cx="0" cy="0" r="1" gradientUnits="userSpaceOnUse" gradientTransform="translate(30.3767 23.514) rotate(139.573) scale(4.71901 3.68495)">
<stop offset="0.614583" stop-color="#FE7D94"/>
<stop offset="1" stop-color="#EA2548"/>
</radialGradient>
<radialGradient id="paint29_radial_3064_761" cx="0" cy="0" r="1" gradientUnits="userSpaceOnUse" gradientTransform="translate(28.5488 19.6602) rotate(-89.2421) scale(14.8192 8.8192)">
<stop offset="0.442708" stop-color="#FE7D94"/>
<stop offset="0.645833" stop-color="#EA2548"/>
</radialGradient>
</defs>
</svg>
