<svg width="127" height="135" viewBox="0 0 127 135" fill="none" xmlns="http://www.w3.org/2000/svg">
<path d="M94.6659 14.9919C96.7671 17.895 100.478 18.7205 102.07 18.7704C103.101 20.6117 104.7 24.0108 102.848 22.8766C100.997 21.7424 95.4984 20.9411 92.9807 20.6822C84.5041 20.6972 86.3669 28.2771 89.7612 30.3249C92.4766 31.9631 100.548 29.6212 104.245 28.2455L105.19 39.6186C105.961 40.0912 106.856 40.7532 104.265 39.6202C101.026 38.2041 88.6907 35.0662 88.2409 42.1762C87.881 47.8643 91.7991 49.825 94.265 49.8206C99.8671 49.8107 103.509 48.258 105.202 46.7278C105.568 50.2555 106.083 57.0583 105.219 56.0488C104.137 54.7868 99.3567 53.0574 93.0378 53.0686C87.9827 53.0775 84.4125 56.1573 85.1869 58.2959C91.3692 68.2379 102.918 62.5301 104.305 62.5277C105.415 62.5257 103.856 69.901 102.938 73.5889C102.474 72.9051 100.314 71.2554 95.3797 70.1266C89.2124 68.7157 85.251 72.333 86.4541 77.7255C87.3862 81.9033 96.5818 81.7626 101.564 81.0165L95.4435 106.305L100.526 104.558L105.263 81.01C110.974 85.8974 116.211 84.4663 117.29 84.3064C118.368 84.1465 123.604 81.9255 119.741 76.087C115.878 70.2484 103.864 74.5352 105.249 73.5848C106.358 72.8246 107.239 65.8928 107.542 62.522C120.341 66.7649 124.492 60.7543 125.874 58.2241C127.257 55.6939 122.012 52.7015 118.313 53.024C115.355 53.282 109.892 55.1453 107.53 56.0447L107.514 46.7237C108.747 47.0902 112.632 47.5994 118.302 46.7047C123.972 45.81 124.768 42.5331 124.457 41.0065C124.3 39.2163 122.629 35.7647 117.205 36.2798C111.781 36.7949 108.477 39.6655 107.504 41.0364L106.246 26.8201C115.496 28.826 118.11 25.0087 118.26 22.8494C118.669 21.4795 118.591 18.2673 115.012 16.3778C111.433 14.4883 106.95 18.4458 105.156 20.6607L103.763 17.5035C105.56 16.6578 109.028 13.7027 108.526 8.64809C107.898 2.32988 102.036 -0.503466 97.2597 0.136893C93.4385 0.649181 92.2842 4.46387 92.1847 6.30718C91.3267 9.21558 93.4814 13.3088 94.6659 14.9919Z" fill="#8BC134"/>
<path d="M14.3002 112.282C17.0409 110.057 17.8195 106.127 17.8662 104.44C19.6045 103.349 22.8135 101.656 21.743 103.617C20.6725 105.578 19.9171 111.401 19.6732 114.068C19.689 123.046 26.8453 121.074 28.778 117.48C30.3242 114.604 28.1115 106.054 26.8119 102.139L37.5497 101.141C37.9958 100.324 38.6206 99.3759 37.5515 102.12C36.2151 105.55 33.2549 118.614 39.968 119.092C45.3385 119.475 47.1889 115.325 47.1843 112.713C47.1738 106.78 45.707 102.922 44.262 101.129C47.5926 100.742 54.0155 100.198 53.0625 101.113C51.8712 102.258 50.2394 107.321 50.2512 114.014C50.2606 119.368 53.1692 123.15 55.1882 122.33C64.5738 115.784 59.1824 103.551 59.1798 102.082C59.1777 100.907 66.1415 102.559 69.6237 103.533C68.9782 104.024 67.421 106.312 66.3563 111.537C65.0253 118.069 68.4415 122.265 73.5327 120.992C77.4769 120.005 77.3422 110.266 76.6368 104.989L100.514 111.477L98.8638 106.093L76.6299 101.072C81.2433 95.024 79.891 89.4764 79.7398 88.334C79.5887 87.1917 77.4906 81.6454 71.9789 85.736C66.4671 89.8266 70.5169 102.552 69.6194 101.084C68.9013 99.9102 62.3564 98.9749 59.1738 98.6541C63.1772 85.0986 57.5013 80.7013 55.1121 79.2364C52.723 77.7715 49.8987 83.3264 50.2039 87.2435C50.4481 90.3772 52.2085 96.1635 53.0582 98.6649L44.2577 98.6804C44.6034 97.3739 45.0834 93.2596 44.2375 87.254C43.3916 81.2485 40.2975 80.4051 38.8562 80.7342C37.166 80.9004 33.9074 82.6691 34.3949 88.414C34.8823 94.159 37.5933 97.6584 38.8879 98.6899L25.4657 100.019C27.3577 90.222 23.753 87.4534 21.7142 87.2938C20.4207 86.8608 17.3879 86.9423 15.6046 90.7325C13.8214 94.5227 17.5588 99.2716 19.6504 101.172L16.6698 102.647C15.8709 100.744 13.0801 97.0704 8.30784 97.6012C2.34255 98.2647 -0.3314 104.472 0.274172 109.531C0.75863 113.579 4.36055 114.802 6.10096 114.908C8.84713 115.817 12.7114 113.536 14.3002 112.282Z" fill="#8BC134"/>
<path d="M99.336 104.251C103.074 113.238 112.563 128.18 120.618 116.061C128.673 103.942 109.786 103.138 99.336 104.251Z" fill="#FF9900"/>
<path d="M99.336 104.251C103.074 113.238 112.563 128.18 120.618 116.061C128.673 103.942 109.786 103.138 99.336 104.251Z" fill="url(#paint0_radial_3064_727)" fill-opacity="0.2"/>
<path d="M98.1568 105.205C92.6701 113.224 85.3095 129.344 99.7614 129.671C114.213 129.998 104.713 113.497 98.1568 105.205Z" fill="#FF9900"/>
<path d="M98.1568 105.205C92.6701 113.224 85.3095 129.344 99.7614 129.671C114.213 129.998 104.713 113.497 98.1568 105.205Z" fill="url(#paint1_radial_3064_727)" fill-opacity="0.2"/>
<path d="M99.2228 103.686C108.874 103.462 126.119 100.015 117.896 88.0111C109.673 76.0072 102.021 93.4592 99.2228 103.686Z" fill="#FF9900"/>
<path d="M99.2228 103.686C108.874 103.462 126.119 100.015 117.896 88.0111C109.673 76.0072 102.021 93.4592 99.2228 103.686Z" fill="url(#paint2_radial_3064_727)" fill-opacity="0.2"/>
<path d="M96.8643 104.429C87.2172 104.083 69.7982 106.507 77.2988 118.975C84.7994 131.443 93.4677 114.473 96.8643 104.429Z" fill="#FF9900"/>
<path d="M96.8643 104.429C87.2172 104.083 69.7982 106.507 77.2988 118.975C84.7994 131.443 93.4677 114.473 96.8643 104.429Z" fill="url(#paint3_radial_3064_727)" fill-opacity="0.2"/>
<path d="M98.2645 102.059C103.142 93.8102 109.339 77.4704 95.1034 78.102C80.8682 78.7336 91.2795 94.3366 98.2645 102.059Z" fill="#FF9900"/>
<path d="M98.2645 102.059C103.142 93.8102 109.339 77.4704 95.1034 78.102C80.8682 78.7336 91.2795 94.3366 98.2645 102.059Z" fill="url(#paint4_radial_3064_727)" fill-opacity="0.2"/>
<path d="M97.3843 102.698C92.1445 94.5156 80.2082 81.4909 74.3817 94.8515C68.5552 108.212 87.2891 105.649 97.3843 102.698Z" fill="#FF9900"/>
<path d="M97.3843 102.698C92.1445 94.5156 80.2082 81.4909 74.3817 94.8515C68.5552 108.212 87.2891 105.649 97.3843 102.698Z" fill="url(#paint5_radial_3064_727)" fill-opacity="0.3"/>
<path d="M101.394 31.0208C103.119 35.2228 107.499 42.21 111.216 36.5433C114.934 30.8765 106.217 30.5005 101.394 31.0208Z" fill="#FF9900"/>
<path d="M101.394 31.0208C103.119 35.2228 107.499 42.21 111.216 36.5433C114.934 30.8765 106.217 30.5005 101.394 31.0208Z" fill="url(#paint6_radial_3064_727)" fill-opacity="0.2"/>
<path d="M100.85 31.4669C98.3175 35.2164 94.9205 42.7536 101.591 42.9067C108.261 43.0597 103.876 35.3439 100.85 31.4669Z" fill="#FF9900"/>
<path d="M100.85 31.4669C98.3175 35.2164 94.9205 42.7536 101.591 42.9067C108.261 43.0597 103.876 35.3439 100.85 31.4669Z" fill="url(#paint7_radial_3064_727)" fill-opacity="0.2"/>
<path d="M101.342 30.7564C105.796 30.6521 113.755 29.0402 109.96 23.4272C106.165 17.8143 102.633 25.9746 101.342 30.7564Z" fill="#FF9900"/>
<path d="M101.342 30.7564C105.796 30.6521 113.755 29.0402 109.96 23.4272C106.165 17.8143 102.633 25.9746 101.342 30.7564Z" fill="url(#paint8_radial_3064_727)" fill-opacity="0.2"/>
<path d="M100.899 29.9963C103.151 26.1392 106.01 18.499 99.4402 18.7941C92.8701 19.0893 97.6755 26.3852 100.899 29.9963Z" fill="#FF9900"/>
<path d="M100.899 29.9963C103.151 26.1392 106.01 18.499 99.4402 18.7941C92.8701 19.0893 97.6755 26.3852 100.899 29.9963Z" fill="url(#paint9_radial_3064_727)" fill-opacity="0.2"/>
<path d="M100.574 30.0847C98.0297 26.3433 92.3211 20.4445 89.8413 26.7799C87.3616 33.1154 95.9632 31.6229 100.574 30.0847Z" fill="#FF9900"/>
<path d="M100.574 30.0847C98.0297 26.3433 92.3211 20.4445 89.8413 26.7799C87.3616 33.1154 95.9632 31.6229 100.574 30.0847Z" fill="url(#paint10_radial_3064_727)" fill-opacity="0.3"/>
<path d="M100.055 31.0988C95.5305 31.041 87.4252 32.3408 91.1976 38.0027C94.9699 43.6645 98.6741 35.7592 100.055 31.0988Z" fill="#FF9900"/>
<path d="M100.055 31.0988C95.5305 31.041 87.4252 32.3408 91.1976 38.0027C94.9699 43.6645 98.6741 35.7592 100.055 31.0988Z" fill="url(#paint11_radial_3064_727)" fill-opacity="0.3"/>
<path d="M109.833 59.4215C110.887 62.1012 113.564 66.5572 115.836 62.9437C118.107 59.3301 112.78 59.0899 109.833 59.4215Z" fill="#FF9900"/>
<path d="M109.833 59.4215C110.887 62.1012 113.564 66.5572 115.836 62.9437C118.107 59.3301 112.78 59.0899 109.833 59.4215Z" fill="url(#paint12_radial_3064_727)" fill-opacity="0.2"/>
<path d="M109.5 59.7058C107.953 62.0968 105.877 66.9032 109.954 67.0011C114.03 67.099 111.35 62.1784 109.5 59.7058Z" fill="#FF9900"/>
<path d="M109.5 59.7058C107.953 62.0968 105.877 66.9032 109.954 67.0011C114.03 67.099 111.35 62.1784 109.5 59.7058Z" fill="url(#paint13_radial_3064_727)" fill-opacity="0.2"/>
<path d="M109.801 59.2529C112.523 59.1866 117.387 58.1591 115.067 54.5795C112.747 50.9998 110.59 56.2036 109.801 59.2529Z" fill="#FF9900"/>
<path d="M109.801 59.2529C112.523 59.1866 117.387 58.1591 115.067 54.5795C112.747 50.9998 110.59 56.2036 109.801 59.2529Z" fill="url(#paint14_radial_3064_727)" fill-opacity="0.2"/>
<path d="M108.985 59.5185C106.262 59.488 101.365 60.3419 103.556 64.0018C105.747 67.6616 108.088 62.5379 108.985 59.5185Z" fill="#FF9900"/>
<path d="M108.985 59.5185C106.262 59.488 101.365 60.3419 103.556 64.0018C105.747 67.6616 108.088 62.5379 108.985 59.5185Z" fill="url(#paint15_radial_3064_727)" fill-opacity="0.2"/>
<path d="M109.531 58.7678C110.906 56.3082 112.653 51.4361 108.638 51.624C104.623 51.8119 107.56 56.4648 109.531 58.7678Z" fill="#FF9900"/>
<path d="M109.531 58.7678C110.906 56.3082 112.653 51.4361 108.638 51.624C104.623 51.8119 107.56 56.4648 109.531 58.7678Z" fill="url(#paint16_radial_3064_727)" fill-opacity="0.2"/>
<path d="M109.332 58.8247C107.777 56.4386 104.288 52.6766 102.773 56.7167C101.257 60.7568 106.514 59.8054 109.332 58.8247Z" fill="#FF9900"/>
<path d="M109.332 58.8247C107.777 56.4386 104.288 52.6766 102.773 56.7167C101.257 60.7568 106.514 59.8054 109.332 58.8247Z" fill="url(#paint17_radial_3064_727)" fill-opacity="0.3"/>
<path d="M57.1837 97.4874C58.2382 100.167 60.9152 104.623 63.1866 101.01C65.4581 97.396 60.1311 97.1558 57.1837 97.4874Z" fill="#FF9900"/>
<path d="M57.1837 97.4874C58.2382 100.167 60.9152 104.623 63.1866 101.01C65.4581 97.396 60.1311 97.1558 57.1837 97.4874Z" fill="url(#paint18_radial_3064_727)" fill-opacity="0.2"/>
<path d="M56.8511 97.7715C55.3038 100.162 53.2282 104.969 57.3044 105.067C61.3806 105.165 58.7006 100.244 56.8511 97.7715Z" fill="#FF9900"/>
<path d="M56.8511 97.7715C55.3038 100.162 53.2282 104.969 57.3044 105.067C61.3806 105.165 58.7006 100.244 56.8511 97.7715Z" fill="url(#paint19_radial_3064_727)" fill-opacity="0.2"/>
<path d="M57.1517 97.3191C59.8736 97.2528 64.7377 96.2253 62.418 92.6456C60.0983 89.066 57.9406 94.2697 57.1517 97.3191Z" fill="#FF9900"/>
<path d="M57.1517 97.3191C59.8736 97.2528 64.7377 96.2253 62.418 92.6456C60.0983 89.066 57.9406 94.2697 57.1517 97.3191Z" fill="url(#paint20_radial_3064_727)" fill-opacity="0.2"/>
<path d="M56.1943 97.7124C53.4721 97.6532 48.5659 98.4555 50.7182 102.138C52.8705 105.821 55.2657 100.722 56.1943 97.7124Z" fill="#FF9900"/>
<path d="M56.1943 97.7124C53.4721 97.6532 48.5659 98.4555 50.7182 102.138C52.8705 105.821 55.2657 100.722 56.1943 97.7124Z" fill="url(#paint21_radial_3064_727)" fill-opacity="0.2"/>
<path d="M56.8813 96.8336C58.2568 94.374 60.0041 89.5019 55.9891 89.6898C51.974 89.8777 54.911 94.5306 56.8813 96.8336Z" fill="#FF9900"/>
<path d="M56.8813 96.8336C58.2568 94.374 60.0041 89.5019 55.9891 89.6898C51.974 89.8777 54.911 94.5306 56.8813 96.8336Z" fill="url(#paint22_radial_3064_727)" fill-opacity="0.2"/>
<path d="M56.6825 96.8903C55.1274 94.5043 51.6386 90.7423 50.1235 94.7823C48.6084 98.8224 53.8648 97.871 56.6825 96.8903Z" fill="#FF9900"/>
<path d="M56.6825 96.8903C55.1274 94.5043 51.6386 90.7423 50.1235 94.7823C48.6084 98.8224 53.8648 97.871 56.6825 96.8903Z" fill="url(#paint23_radial_3064_727)" fill-opacity="0.3"/>
<path d="M24.3745 110.977C25.9084 114.892 29.8022 121.401 33.1061 116.122C36.4101 110.843 28.6617 110.493 24.3745 110.977Z" fill="#FF9900"/>
<path d="M24.3745 110.977C25.9084 114.892 29.8022 121.401 33.1061 116.122C36.4101 110.843 28.6617 110.493 24.3745 110.977Z" fill="url(#paint24_radial_3064_727)" fill-opacity="0.2"/>
<path d="M23.8907 111.392C21.6401 114.885 18.6211 121.906 24.5501 122.049C30.4791 122.193 26.5809 115.004 23.8907 111.392Z" fill="#FF9900"/>
<path d="M23.8907 111.392C21.6401 114.885 18.6211 121.906 24.5501 122.049C30.4791 122.193 26.5809 115.004 23.8907 111.392Z" fill="url(#paint25_radial_3064_727)" fill-opacity="0.2"/>
<path d="M24.328 110.731C28.2872 110.634 35.3622 109.133 31.9881 103.903C28.6139 98.674 25.4754 106.276 24.328 110.731Z" fill="#FF9900"/>
<path d="M24.328 110.731C28.2872 110.634 35.3622 109.133 31.9881 103.903C28.6139 98.674 25.4754 106.276 24.328 110.731Z" fill="url(#paint26_radial_3064_727)" fill-opacity="0.2"/>
<path d="M23.4173 111.012C19.4619 110.811 12.2942 111.776 15.266 117.244C18.2379 122.712 21.9384 115.368 23.4173 111.012Z" fill="#FF9900"/>
<path d="M23.4173 111.012C19.4619 110.811 12.2942 111.776 15.266 117.244C18.2379 122.712 21.9384 115.368 23.4173 111.012Z" fill="url(#paint27_radial_3064_727)" fill-opacity="0.2"/>
<path d="M23.9349 110.022C25.9356 106.429 28.477 99.3111 22.6369 99.5856C16.7968 99.8601 21.0688 106.657 23.9349 110.022Z" fill="#FF9900"/>
<path d="M23.9349 110.022C25.9356 106.429 28.477 99.3111 22.6369 99.5856C16.7968 99.8601 21.0688 106.657 23.9349 110.022Z" fill="url(#paint28_radial_3064_727)" fill-opacity="0.2"/>
<path d="M23.6455 110.104C21.3836 106.619 16.3089 101.123 14.1052 107.025C11.9014 112.927 19.5472 111.537 23.6455 110.104Z" fill="#FF9900"/>
<path d="M23.6455 110.104C21.3836 106.619 16.3089 101.123 14.1052 107.025C11.9014 112.927 19.5472 111.537 23.6455 110.104Z" fill="url(#paint29_radial_3064_727)" fill-opacity="0.3"/>
<defs>
<radialGradient id="paint0_radial_3064_727" cx="0" cy="0" r="1" gradientUnits="userSpaceOnUse" gradientTransform="translate(113.395 114.474) rotate(-147.415) scale(16.0551 11.6361)">
<stop offset="0.489583" stop-color="#FE7D94"/>
<stop offset="1" stop-color="#EA2548"/>
</radialGradient>
<radialGradient id="paint1_radial_3064_727" cx="0" cy="0" r="1" gradientUnits="userSpaceOnUse" gradientTransform="translate(98.2493 119.627) rotate(-128.336) scale(11.2865 8.87281)">
<stop offset="0.572917" stop-color="#FE7D94"/>
<stop offset="1" stop-color="#EA2548"/>
</radialGradient>
<radialGradient id="paint2_radial_3064_727" cx="0" cy="0" r="1" gradientUnits="userSpaceOnUse" gradientTransform="translate(109.574 95.6101) rotate(120.188) scale(11.5177 9.03213)">
<stop offset="0.697917" stop-color="#FE7D94"/>
<stop offset="1" stop-color="#EA2548"/>
</radialGradient>
<radialGradient id="paint3_radial_3064_727" cx="0" cy="0" r="1" gradientUnits="userSpaceOnUse" gradientTransform="translate(86.055 111.88) rotate(-56.4294) scale(11.5177 9.03213)">
<stop offset="0.697917" stop-color="#FE7D94"/>
<stop offset="1" stop-color="#EA2548"/>
</radialGradient>
<radialGradient id="paint4_radial_3064_727" cx="0" cy="0" r="1" gradientUnits="userSpaceOnUse" gradientTransform="translate(97.2405 87.8807) rotate(47.8704) scale(11.1183 8.75155)">
<stop offset="0.614583" stop-color="#FE7D94"/>
<stop offset="1" stop-color="#EA2548"/>
</radialGradient>
<radialGradient id="paint5_radial_3064_727" cx="0" cy="0" r="1" gradientUnits="userSpaceOnUse" gradientTransform="translate(88.0193 92.2054) rotate(-177.362) scale(36.1213 20.2456)">
<stop offset="0.442708" stop-color="#FE7D94"/>
<stop offset="0.645833" stop-color="#EA2548"/>
</radialGradient>
<radialGradient id="paint6_radial_3064_727" cx="0" cy="0" r="1" gradientUnits="userSpaceOnUse" gradientTransform="translate(107.883 35.8013) rotate(-147.074) scale(7.4385 5.42011)">
<stop offset="0.489583" stop-color="#FE7D94"/>
<stop offset="1" stop-color="#EA2548"/>
</radialGradient>
<radialGradient id="paint7_radial_3064_727" cx="0" cy="0" r="1" gradientUnits="userSpaceOnUse" gradientTransform="translate(100.893 38.2104) rotate(-127.973) scale(5.25141 4.11546)">
<stop offset="0.572917" stop-color="#FE7D94"/>
<stop offset="1" stop-color="#EA2548"/>
</radialGradient>
<radialGradient id="paint8_radial_3064_727" cx="0" cy="0" r="1" gradientUnits="userSpaceOnUse" gradientTransform="translate(106.119 26.9804) rotate(119.864) scale(5.36794 4.18238)">
<stop offset="0.697917" stop-color="#FE7D94"/>
<stop offset="1" stop-color="#EA2548"/>
</radialGradient>
<radialGradient id="paint9_radial_3064_727" cx="0" cy="0" r="1" gradientUnits="userSpaceOnUse" gradientTransform="translate(100.427 23.3666) rotate(48.2415) scale(5.16876 4.06266)">
<stop offset="0.614583" stop-color="#FE7D94"/>
<stop offset="1" stop-color="#EA2548"/>
</radialGradient>
<radialGradient id="paint10_radial_3064_727" cx="0" cy="0" r="1" gradientUnits="userSpaceOnUse" gradientTransform="translate(96.0909 25.3287) rotate(-179.281) scale(16.6714 9.46666)">
<stop offset="0.442708" stop-color="#FE7D94"/>
<stop offset="0.645833" stop-color="#EA2548"/>
</radialGradient>
<radialGradient id="paint11_radial_3064_727" cx="0" cy="0" r="1" gradientUnits="userSpaceOnUse" gradientTransform="translate(93.5881 32.0488) rotate(125.668) scale(16.6714 9.46666)">
<stop offset="0.442708" stop-color="#FE7D94"/>
<stop offset="0.645833" stop-color="#EA2548"/>
</radialGradient>
<radialGradient id="paint12_radial_3064_727" cx="0" cy="0" r="1" gradientUnits="userSpaceOnUse" gradientTransform="translate(113.799 62.4703) rotate(-145.95) scale(4.60541 3.41168)">
<stop offset="0.489583" stop-color="#FE7D94"/>
<stop offset="1" stop-color="#EA2548"/>
</radialGradient>
<radialGradient id="paint13_radial_3064_727" cx="0" cy="0" r="1" gradientUnits="userSpaceOnUse" gradientTransform="translate(109.527 64.0062) rotate(-126.797) scale(3.29693 2.55463)">
<stop offset="0.572917" stop-color="#FE7D94"/>
<stop offset="1" stop-color="#EA2548"/>
</radialGradient>
<radialGradient id="paint14_radial_3064_727" cx="0" cy="0" r="1" gradientUnits="userSpaceOnUse" gradientTransform="translate(112.72 56.8451) rotate(118.819) scale(3.38813 2.58234)">
<stop offset="0.697917" stop-color="#FE7D94"/>
<stop offset="1" stop-color="#EA2548"/>
</radialGradient>
<radialGradient id="paint15_radial_3064_727" cx="0" cy="0" r="1" gradientUnits="userSpaceOnUse" gradientTransform="translate(105.982 61.821) rotate(-59.1432) scale(3.38813 2.58234)">
<stop offset="0.697917" stop-color="#FE7D94"/>
<stop offset="1" stop-color="#EA2548"/>
</radialGradient>
<radialGradient id="paint16_radial_3064_727" cx="0" cy="0" r="1" gradientUnits="userSpaceOnUse" gradientTransform="translate(109.241 54.5399) rotate(49.4503) scale(3.23615 2.52878)">
<stop offset="0.614583" stop-color="#FE7D94"/>
<stop offset="1" stop-color="#EA2548"/>
</radialGradient>
<radialGradient id="paint17_radial_3064_727" cx="0" cy="0" r="1" gradientUnits="userSpaceOnUse" gradientTransform="translate(106.592 55.7915) rotate(-179.246) scale(10.1882 6.03692)">
<stop offset="0.442708" stop-color="#FE7D94"/>
<stop offset="0.645833" stop-color="#EA2548"/>
</radialGradient>
<radialGradient id="paint18_radial_3064_727" cx="0" cy="0" r="1" gradientUnits="userSpaceOnUse" gradientTransform="translate(61.1495 100.536) rotate(-145.95) scale(4.60541 3.41168)">
<stop offset="0.489583" stop-color="#FE7D94"/>
<stop offset="1" stop-color="#EA2548"/>
</radialGradient>
<radialGradient id="paint19_radial_3064_727" cx="0" cy="0" r="1" gradientUnits="userSpaceOnUse" gradientTransform="translate(56.8776 102.072) rotate(-126.797) scale(3.29693 2.55463)">
<stop offset="0.572917" stop-color="#FE7D94"/>
<stop offset="1" stop-color="#EA2548"/>
</radialGradient>
<radialGradient id="paint20_radial_3064_727" cx="0" cy="0" r="1" gradientUnits="userSpaceOnUse" gradientTransform="translate(60.0709 94.9113) rotate(118.819) scale(3.38813 2.58234)">
<stop offset="0.697917" stop-color="#FE7D94"/>
<stop offset="1" stop-color="#EA2548"/>
</radialGradient>
<radialGradient id="paint21_radial_3064_727" cx="0" cy="0" r="1" gradientUnits="userSpaceOnUse" gradientTransform="translate(53.1672 99.9831) rotate(-58.5403) scale(3.38813 2.58234)">
<stop offset="0.697917" stop-color="#FE7D94"/>
<stop offset="1" stop-color="#EA2548"/>
</radialGradient>
<radialGradient id="paint22_radial_3064_727" cx="0" cy="0" r="1" gradientUnits="userSpaceOnUse" gradientTransform="translate(56.5921 92.6057) rotate(49.4503) scale(3.23615 2.52878)">
<stop offset="0.614583" stop-color="#FE7D94"/>
<stop offset="1" stop-color="#EA2548"/>
</radialGradient>
<radialGradient id="paint23_radial_3064_727" cx="0" cy="0" r="1" gradientUnits="userSpaceOnUse" gradientTransform="translate(53.9426 93.8572) rotate(-179.246) scale(10.1882 6.03692)">
<stop offset="0.442708" stop-color="#FE7D94"/>
<stop offset="0.645833" stop-color="#EA2548"/>
</radialGradient>
<radialGradient id="paint24_radial_3064_727" cx="0" cy="0" r="1" gradientUnits="userSpaceOnUse" gradientTransform="translate(30.143 115.431) rotate(-145.834) scale(6.70799 4.97721)">
<stop offset="0.489583" stop-color="#FE7D94"/>
<stop offset="1" stop-color="#EA2548"/>
</radialGradient>
<radialGradient id="paint25_radial_3064_727" cx="0" cy="0" r="1" gradientUnits="userSpaceOnUse" gradientTransform="translate(23.9293 117.674) rotate(-126.678) scale(4.80897 3.72159)">
<stop offset="0.572917" stop-color="#FE7D94"/>
<stop offset="1" stop-color="#EA2548"/>
</radialGradient>
<radialGradient id="paint26_radial_3064_727" cx="0" cy="0" r="1" gradientUnits="userSpaceOnUse" gradientTransform="translate(28.5741 107.213) rotate(118.714) scale(4.94463 3.75995)">
<stop offset="0.697917" stop-color="#FE7D94"/>
<stop offset="1" stop-color="#EA2548"/>
</radialGradient>
<radialGradient id="paint27_radial_3064_727" cx="0" cy="0" r="1" gradientUnits="userSpaceOnUse" gradientTransform="translate(18.9189 114.2) rotate(-56.9786) scale(4.94463 3.75995)">
<stop offset="0.697917" stop-color="#FE7D94"/>
<stop offset="1" stop-color="#EA2548"/>
</radialGradient>
<radialGradient id="paint28_radial_3064_727" cx="0" cy="0" r="1" gradientUnits="userSpaceOnUse" gradientTransform="translate(23.5141 103.845) rotate(49.5731) scale(4.71901 3.68495)">
<stop offset="0.614583" stop-color="#FE7D94"/>
<stop offset="1" stop-color="#EA2548"/>
</radialGradient>
<radialGradient id="paint29_radial_3064_727" cx="0" cy="0" r="1" gradientUnits="userSpaceOnUse" gradientTransform="translate(19.6602 105.673) rotate(-179.242) scale(14.8192 8.8192)">
<stop offset="0.442708" stop-color="#FE7D94"/>
<stop offset="0.645833" stop-color="#EA2548"/>
</radialGradient>
</defs>
</svg>
