<svg width="25" height="25" viewBox="0 0 25 25" fill="none" xmlns="http://www.w3.org/2000/svg">
<path d="M4.18437 18.5844C4.34656 18.7472 4.47083 18.9438 4.54835 19.1601C4.62586 19.3764 4.6547 19.6072 4.63281 19.8359C4.52273 20.8946 4.31454 21.9408 4.01094 22.9609C6.19062 22.4562 7.52188 21.8719 8.12656 21.5656C8.46954 21.3919 8.86451 21.3507 9.23594 21.45C10.3005 21.7349 11.398 21.8778 12.5 21.875C18.7437 21.875 23.4375 17.4891 23.4375 12.5C23.4375 7.51094 18.7437 3.125 12.5 3.125C6.25625 3.125 1.5625 7.5125 1.5625 12.5C1.5625 14.7937 2.52656 16.9219 4.18437 18.5844ZM3.41406 24.6859C3.04384 24.7592 2.67244 24.8264 2.3 24.8875C1.9875 24.9375 1.75 24.6125 1.87344 24.3219C2.0118 23.9945 2.13896 23.6626 2.25469 23.3266L2.25937 23.3109C2.64687 22.1859 2.9625 20.8922 3.07812 19.6875C1.16094 17.7656 0 15.25 0 12.5C0 6.45937 5.59687 1.5625 12.5 1.5625C19.4031 1.5625 25 6.45937 25 12.5C25 18.5406 19.4031 23.4375 12.5 23.4375C11.2619 23.4403 10.0288 23.2795 8.83281 22.9594C8.02031 23.3703 6.27187 24.1187 3.41406 24.6859Z" fill="white"/>
<path d="M6.25 8.59375C6.25 8.38655 6.33231 8.18784 6.47882 8.04132C6.62534 7.89481 6.82405 7.8125 7.03125 7.8125H17.9688C18.176 7.8125 18.3747 7.89481 18.5212 8.04132C18.6677 8.18784 18.75 8.38655 18.75 8.59375C18.75 8.80095 18.6677 8.99966 18.5212 9.14618C18.3747 9.29269 18.176 9.375 17.9688 9.375H7.03125C6.82405 9.375 6.62534 9.29269 6.47882 9.14618C6.33231 8.99966 6.25 8.80095 6.25 8.59375ZM6.25 12.5C6.25 12.2928 6.33231 12.0941 6.47882 11.9476C6.62534 11.8011 6.82405 11.7188 7.03125 11.7188H17.9688C18.176 11.7188 18.3747 11.8011 18.5212 11.9476C18.6677 12.0941 18.75 12.2928 18.75 12.5C18.75 12.7072 18.6677 12.9059 18.5212 13.0524C18.3747 13.1989 18.176 13.2812 17.9688 13.2812H7.03125C6.82405 13.2812 6.62534 13.1989 6.47882 13.0524C6.33231 12.9059 6.25 12.7072 6.25 12.5ZM6.25 16.4062C6.25 16.199 6.33231 16.0003 6.47882 15.8538C6.62534 15.7073 6.82405 15.625 7.03125 15.625H13.2812C13.4885 15.625 13.6872 15.7073 13.8337 15.8538C13.9802 16.0003 14.0625 16.199 14.0625 16.4062C14.0625 16.6135 13.9802 16.8122 13.8337 16.9587C13.6872 17.1052 13.4885 17.1875 13.2812 17.1875H7.03125C6.82405 17.1875 6.62534 17.1052 6.47882 16.9587C6.33231 16.8122 6.25 16.6135 6.25 16.4062Z" fill="white"/>
<path d="M4.18437 18.5844C4.34656 18.7472 4.47083 18.9438 4.54835 19.1601C4.62586 19.3764 4.6547 19.6072 4.63281 19.8359C4.52273 20.8946 4.31454 21.9408 4.01094 22.9609C6.19062 22.4562 7.52188 21.8719 8.12656 21.5656C8.46954 21.3919 8.86451 21.3507 9.23594 21.45C10.3005 21.7349 11.398 21.8778 12.5 21.875C18.7437 21.875 23.4375 17.4891 23.4375 12.5C23.4375 7.51094 18.7437 3.125 12.5 3.125C6.25625 3.125 1.5625 7.5125 1.5625 12.5C1.5625 14.7937 2.52656 16.9219 4.18437 18.5844ZM3.41406 24.6859C3.04384 24.7592 2.67244 24.8264 2.3 24.8875C1.9875 24.9375 1.75 24.6125 1.87344 24.3219C2.0118 23.9945 2.13896 23.6626 2.25469 23.3266L2.25937 23.3109C2.64687 22.1859 2.9625 20.8922 3.07812 19.6875C1.16094 17.7656 0 15.25 0 12.5C0 6.45937 5.59687 1.5625 12.5 1.5625C19.4031 1.5625 25 6.45937 25 12.5C25 18.5406 19.4031 23.4375 12.5 23.4375C11.2619 23.4403 10.0288 23.2795 8.83281 22.9594C8.02031 23.3703 6.27187 24.1187 3.41406 24.6859Z" fill="white"/>
<path d="M6.25 8.59375C6.25 8.38655 6.33231 8.18784 6.47882 8.04132C6.62534 7.89481 6.82405 7.8125 7.03125 7.8125H17.9688C18.176 7.8125 18.3747 7.89481 18.5212 8.04132C18.6677 8.18784 18.75 8.38655 18.75 8.59375C18.75 8.80095 18.6677 8.99966 18.5212 9.14618C18.3747 9.29269 18.176 9.375 17.9688 9.375H7.03125C6.82405 9.375 6.62534 9.29269 6.47882 9.14618C6.33231 8.99966 6.25 8.80095 6.25 8.59375ZM6.25 12.5C6.25 12.2928 6.33231 12.0941 6.47882 11.9476C6.62534 11.8011 6.82405 11.7188 7.03125 11.7188H17.9688C18.176 11.7188 18.3747 11.8011 18.5212 11.9476C18.6677 12.0941 18.75 12.2928 18.75 12.5C18.75 12.7072 18.6677 12.9059 18.5212 13.0524C18.3747 13.1989 18.176 13.2812 17.9688 13.2812H7.03125C6.82405 13.2812 6.62534 13.1989 6.47882 13.0524C6.33231 12.9059 6.25 12.7072 6.25 12.5ZM6.25 16.4062C6.25 16.199 6.33231 16.0003 6.47882 15.8538C6.62534 15.7073 6.82405 15.625 7.03125 15.625H13.2812C13.4885 15.625 13.6872 15.7073 13.8337 15.8538C13.9802 16.0003 14.0625 16.199 14.0625 16.4062C14.0625 16.6135 13.9802 16.8122 13.8337 16.9587C13.6872 17.1052 13.4885 17.1875 13.2812 17.1875H7.03125C6.82405 17.1875 6.62534 17.1052 6.47882 16.9587C6.33231 16.8122 6.25 16.6135 6.25 16.4062Z" fill="white"/>
</svg>
