<svg width="25" height="23" viewBox="0 0 25 23" fill="none" xmlns="http://www.w3.org/2000/svg">
<path d="M4.18437 17.0976C4.34656 17.2474 4.47083 17.4283 4.54835 17.6273C4.62586 17.8263 4.6547 18.0386 4.63281 18.2491C4.52273 19.223 4.31454 20.1855 4.01094 21.1241C6.19062 20.6598 7.52188 20.1221 8.12656 19.8404C8.46954 19.6806 8.86451 19.6427 9.23594 19.734C10.3005 19.9961 11.398 20.1276 12.5 20.125C18.7437 20.125 23.4375 16.0899 23.4375 11.5C23.4375 6.91006 18.7437 2.875 12.5 2.875C6.25625 2.875 1.5625 6.9115 1.5625 11.5C1.5625 13.6103 2.52656 15.5681 4.18437 17.0976ZM3.41406 22.7111C3.04384 22.7785 2.67244 22.8403 2.3 22.8965C1.9875 22.9425 1.75 22.6435 1.87344 22.3761C2.0118 22.075 2.13896 21.7696 2.25469 21.4604L2.25937 21.4461C2.64687 20.4111 2.9625 19.2208 3.07812 18.1125C1.16094 16.3444 0 14.03 0 11.5C0 5.94263 5.59687 1.4375 12.5 1.4375C19.4031 1.4375 25 5.94263 25 11.5C25 17.0574 19.4031 21.5625 12.5 21.5625C11.2619 21.565 10.0288 21.4171 8.83281 21.1226C8.02031 21.5007 6.27187 22.1893 3.41406 22.7111Z" fill="white"/>
<path d="M11.0406 9.7175C10.7363 9.28144 10.2863 8.94803 9.75831 8.7674C9.23033 8.58677 8.6529 8.56868 8.11279 8.71583C7.57268 8.86299 7.09908 9.16745 6.76317 9.58345C6.42725 9.99946 6.24718 10.5045 6.25 11.0228C6.25028 11.4519 6.37582 11.8731 6.61351 12.2424C6.85119 12.6116 7.1923 12.9154 7.60119 13.1219C8.01008 13.3284 8.47175 13.4301 8.93797 13.4164C9.4042 13.4027 9.85786 13.274 10.2516 13.0439C10.0469 13.6031 9.66563 14.1996 9.0375 14.7976C8.91733 14.912 8.85146 15.0656 8.85439 15.2247C8.85584 15.3034 8.87414 15.3811 8.90824 15.4534C8.94234 15.5256 8.99157 15.591 9.05313 15.6458C9.11468 15.7005 9.18736 15.7436 9.267 15.7725C9.34665 15.8014 9.4317 15.8156 9.5173 15.8142C9.69019 15.8115 9.85483 15.7458 9.975 15.6314C12.2969 13.4176 11.9953 11.0113 11.0406 9.72038V9.7175ZM17.2906 9.7175C16.9863 9.28144 16.5363 8.94803 16.0083 8.7674C15.4803 8.58677 14.9029 8.56868 14.3628 8.71583C13.8227 8.86299 13.3491 9.16745 13.0132 9.58345C12.6773 9.99946 12.4972 10.5045 12.5 11.0228C12.5003 11.4519 12.6258 11.8731 12.8635 12.2424C13.1012 12.6116 13.4423 12.9154 13.8512 13.1219C14.2601 13.3284 14.7218 13.4301 15.188 13.4164C15.6542 13.4027 16.1079 13.274 16.5016 13.0439C16.2969 13.6031 15.9156 14.1996 15.2875 14.7976C15.228 14.8543 15.1812 14.9211 15.1498 14.9944C15.1184 15.0677 15.1029 15.1459 15.1044 15.2247C15.1058 15.3034 15.1241 15.3811 15.1582 15.4534C15.1923 15.5256 15.2416 15.591 15.3031 15.6458C15.3647 15.7005 15.4374 15.7436 15.517 15.7725C15.5966 15.8014 15.6817 15.8156 15.7673 15.8142C15.8529 15.8129 15.9374 15.7961 16.0159 15.7647C16.0944 15.7333 16.1655 15.688 16.225 15.6314C18.5469 13.4176 18.2453 11.0113 17.2906 9.72038V9.7175Z" fill="white"/>
<path d="M4.18437 17.0976C4.34656 17.2474 4.47083 17.4283 4.54835 17.6273C4.62586 17.8263 4.6547 18.0386 4.63281 18.2491C4.52273 19.223 4.31454 20.1855 4.01094 21.1241C6.19062 20.6598 7.52188 20.1221 8.12656 19.8404C8.46954 19.6806 8.86451 19.6427 9.23594 19.734C10.3005 19.9961 11.398 20.1276 12.5 20.125C18.7437 20.125 23.4375 16.0899 23.4375 11.5C23.4375 6.91006 18.7437 2.875 12.5 2.875C6.25625 2.875 1.5625 6.9115 1.5625 11.5C1.5625 13.6103 2.52656 15.5681 4.18437 17.0976ZM3.41406 22.7111C3.04384 22.7785 2.67244 22.8403 2.3 22.8965C1.9875 22.9425 1.75 22.6435 1.87344 22.3761C2.0118 22.075 2.13896 21.7696 2.25469 21.4604L2.25937 21.4461C2.64687 20.4111 2.9625 19.2208 3.07812 18.1125C1.16094 16.3444 0 14.03 0 11.5C0 5.94263 5.59687 1.4375 12.5 1.4375C19.4031 1.4375 25 5.94263 25 11.5C25 17.0574 19.4031 21.5625 12.5 21.5625C11.2619 21.565 10.0288 21.4171 8.83281 21.1226C8.02031 21.5007 6.27187 22.1893 3.41406 22.7111Z" fill="white"/>
<path d="M11.0407 9.7175C10.7363 9.28144 10.2863 8.94803 9.75834 8.7674C9.23036 8.58677 8.65293 8.56868 8.11282 8.71583C7.57271 8.86299 7.09911 9.16745 6.7632 9.58345C6.42728 9.99946 6.24721 10.5045 6.25003 11.0228C6.25031 11.4519 6.37585 11.8731 6.61354 12.2424C6.85122 12.6116 7.19233 12.9154 7.60122 13.1219C8.01011 13.3284 8.47178 13.4301 8.938 13.4164C9.40423 13.4027 9.85789 13.274 10.2516 13.0439C10.0469 13.6031 9.66566 14.1996 9.03753 14.7976C8.91736 14.912 8.85149 15.0656 8.85442 15.2247C8.85587 15.3034 8.87417 15.3811 8.90827 15.4534C8.94237 15.5256 8.9916 15.591 9.05316 15.6458C9.11472 15.7005 9.18739 15.7436 9.26703 15.7725C9.34668 15.8014 9.43173 15.8156 9.51733 15.8142C9.69022 15.8115 9.85486 15.7458 9.97503 15.6314C12.2969 13.4176 11.9953 11.0113 11.0407 9.72038V9.7175ZM17.2907 9.7175C16.9863 9.28144 16.5363 8.94803 16.0083 8.7674C15.4804 8.58677 14.9029 8.56868 14.3628 8.71583C13.8227 8.86299 13.3491 9.16745 13.0132 9.58345C12.6773 9.99946 12.4972 10.5045 12.5 11.0228C12.5003 11.4519 12.6259 11.8731 12.8635 12.2424C13.1012 12.6116 13.4423 12.9154 13.8512 13.1219C14.2601 13.3284 14.7218 13.4301 15.188 13.4164C15.6542 13.4027 16.1079 13.274 16.5016 13.0439C16.2969 13.6031 15.9157 14.1996 15.2875 14.7976C15.228 14.8543 15.1812 14.9211 15.1498 14.9944C15.1184 15.0677 15.103 15.1459 15.1044 15.2247C15.1059 15.3034 15.1242 15.3811 15.1583 15.4534C15.1924 15.5256 15.2416 15.591 15.3032 15.6458C15.3647 15.7005 15.4374 15.7436 15.517 15.7725C15.5967 15.8014 15.6817 15.8156 15.7673 15.8142C15.8529 15.8129 15.9374 15.7961 16.0159 15.7647C16.0945 15.7333 16.1655 15.688 16.225 15.6314C18.5469 13.4176 18.2453 11.0113 17.2907 9.72038V9.7175Z" fill="white"/>
</svg>
