<svg width="25" height="25" viewBox="0 0 25 25" fill="none" xmlns="http://www.w3.org/2000/svg">
<g clip-path="url(#clip0_123_498)">
<path d="M12.5 23.4375C9.59919 23.4375 6.8172 22.2852 4.76602 20.234C2.71484 18.1828 1.5625 15.4008 1.5625 12.5C1.5625 9.59919 2.71484 6.8172 4.76602 4.76602C6.8172 2.71484 9.59919 1.5625 12.5 1.5625C15.4008 1.5625 18.1828 2.71484 20.234 4.76602C22.2852 6.8172 23.4375 9.59919 23.4375 12.5C23.4375 15.4008 22.2852 18.1828 20.234 20.234C18.1828 22.2852 15.4008 23.4375 12.5 23.4375ZM12.5 25C15.8152 25 18.9946 23.683 21.3388 21.3388C23.683 18.9946 25 15.8152 25 12.5C25 9.18479 23.683 6.00537 21.3388 3.66117C18.9946 1.31696 15.8152 0 12.5 0C9.18479 0 6.00537 1.31696 3.66117 3.66117C1.31696 6.00537 0 9.18479 0 12.5C0 15.8152 1.31696 18.9946 3.66117 21.3388C6.00537 23.683 9.18479 25 12.5 25Z" fill="white"/>
<path d="M6.69532 14.9484C6.87476 14.8448 7.088 14.8168 7.28813 14.8704C7.48827 14.924 7.65891 15.0549 7.76251 15.2344C8.24261 16.0659 8.9332 16.7564 9.76483 17.2364C10.5965 17.7164 11.5398 17.969 12.5 17.9688C13.4602 17.969 14.4036 17.7164 15.2352 17.2364C16.0668 16.7564 16.7574 16.0659 17.2375 15.2344C17.2884 15.1448 17.3566 15.0662 17.438 15.0031C17.5194 14.9399 17.6125 14.8935 17.712 14.8666C17.8114 14.8396 17.9152 14.8325 18.0174 14.8458C18.1195 14.8591 18.2181 14.8924 18.3073 14.9439C18.3965 14.9955 18.4747 15.0641 18.5373 15.146C18.5998 15.2278 18.6456 15.3212 18.672 15.4208C18.6983 15.5204 18.7047 15.6243 18.6907 15.7263C18.6768 15.8284 18.6427 15.9267 18.5906 16.0156C17.9734 17.0847 17.0856 17.9725 16.0164 18.5896C14.9473 19.2067 13.7345 19.5315 12.5 19.5312C11.2655 19.5315 10.0527 19.2067 8.9836 18.5896C7.91445 17.9725 7.02662 17.0847 6.40938 16.0156C6.30579 15.8362 6.27771 15.6229 6.33134 15.4228C6.38496 15.2227 6.51589 15.052 6.69532 14.9484ZM10.9375 10.1562C10.9375 11.45 10.2375 12.5 9.37501 12.5C8.51251 12.5 7.81251 11.45 7.81251 10.1562C7.81251 8.8625 8.51251 7.8125 9.37501 7.8125C10.2375 7.8125 10.9375 8.8625 10.9375 10.1562ZM17.1875 10.1562C17.1875 11.45 16.4875 12.5 15.625 12.5C14.7625 12.5 14.0625 11.45 14.0625 10.1562C14.0625 8.8625 14.7625 7.8125 15.625 7.8125C16.4875 7.8125 17.1875 8.8625 17.1875 10.1562Z" fill="white"/>
<path d="M12.5 23.4375C9.59919 23.4375 6.8172 22.2852 4.76602 20.234C2.71484 18.1828 1.5625 15.4008 1.5625 12.5C1.5625 9.59919 2.71484 6.8172 4.76602 4.76602C6.8172 2.71484 9.59919 1.5625 12.5 1.5625C15.4008 1.5625 18.1828 2.71484 20.234 4.76602C22.2852 6.8172 23.4375 9.59919 23.4375 12.5C23.4375 15.4008 22.2852 18.1828 20.234 20.234C18.1828 22.2852 15.4008 23.4375 12.5 23.4375ZM12.5 25C15.8152 25 18.9946 23.683 21.3388 21.3388C23.683 18.9946 25 15.8152 25 12.5C25 9.18479 23.683 6.00537 21.3388 3.66117C18.9946 1.31696 15.8152 0 12.5 0C9.18479 0 6.00537 1.31696 3.66117 3.66117C1.31696 6.00537 0 9.18479 0 12.5C0 15.8152 1.31696 18.9946 3.66117 21.3388C6.00537 23.683 9.18479 25 12.5 25Z" fill="white"/>
<path d="M6.69529 14.9484C6.87473 14.8448 7.08797 14.8168 7.2881 14.8704C7.48824 14.924 7.65887 15.0549 7.76248 15.2344C8.24258 16.0659 8.93317 16.7564 9.7648 17.2364C10.5964 17.7164 11.5398 17.969 12.5 17.9688C13.4602 17.969 14.4035 17.7164 15.2352 17.2364C16.0668 16.7564 16.7574 16.0659 17.2375 15.2344C17.2884 15.1448 17.3565 15.0662 17.438 15.0031C17.5194 14.9399 17.6125 14.8935 17.7119 14.8666C17.8114 14.8396 17.9152 14.8325 18.0173 14.8458C18.1195 14.8591 18.218 14.8924 18.3073 14.9439C18.3965 14.9955 18.4746 15.0641 18.5372 15.146C18.5998 15.2278 18.6456 15.3212 18.6719 15.4208C18.6983 15.5204 18.7046 15.6243 18.6907 15.7263C18.6767 15.8284 18.6427 15.9267 18.5906 16.0156C17.9734 17.0847 17.0855 17.9725 16.0164 18.5896C14.9472 19.2067 13.7345 19.5315 12.5 19.5312C11.2655 19.5315 10.0527 19.2067 8.98357 18.5896C7.91442 17.9725 7.02659 17.0847 6.40935 16.0156C6.30576 15.8362 6.27768 15.6229 6.33131 15.4228C6.38493 15.2227 6.51586 15.052 6.69529 14.9484ZM10.9375 10.1562C10.9375 11.45 10.2375 12.5 9.37498 12.5C8.51248 12.5 7.81248 11.45 7.81248 10.1562C7.81248 8.8625 8.51248 7.8125 9.37498 7.8125C10.2375 7.8125 10.9375 8.8625 10.9375 10.1562ZM17.1875 10.1562C17.1875 11.45 16.4875 12.5 15.625 12.5C14.7625 12.5 14.0625 11.45 14.0625 10.1562C14.0625 8.8625 14.7625 7.8125 15.625 7.8125C16.4875 7.8125 17.1875 8.8625 17.1875 10.1562Z" fill="white"/>
</g>
<defs>
<clipPath id="clip0_123_498">
<rect width="25" height="25" fill="white"/>
</clipPath>
</defs>
</svg>
