<svg width="20" height="19" viewBox="0 0 20 19" fill="none" xmlns="http://www.w3.org/2000/svg">
<path d="M0.0625 4.22156C0.188523 3.69698 0.498319 3.22859 0.941152 2.89312C1.38398 2.55764 1.93361 2.37496 2.5 2.375H17.5C18.0664 2.37496 18.616 2.55764 19.0588 2.89312C19.5017 3.22859 19.8115 3.69698 19.9375 4.22156L10 9.99163L0.0625 4.22156ZM0 5.57769V14.0137L7.25375 9.78856L0 5.57769ZM8.45125 10.4856L0.23875 15.2677C0.441658 15.6742 0.761908 16.0175 1.16223 16.2578C1.56255 16.4981 2.02647 16.6254 2.5 16.625H17.5C17.9735 16.6251 18.4372 16.4975 18.8373 16.257C19.2374 16.0165 19.5574 15.673 19.76 15.2665L11.5475 10.4844L10 11.3834L8.45125 10.4856ZM12.7462 9.78975L20 14.0137V5.57769L12.7462 9.78975Z" fill="white"/>
</svg>
