<svg width="25" height="25" viewBox="0 0 25 25" fill="none" xmlns="http://www.w3.org/2000/svg">
<g clip-path="url(#clip0_123_516)">
<path d="M4.6875 3.90625C4.6875 2.87025 5.09905 1.87668 5.83161 1.14411C6.56418 0.41155 7.55775 0 8.59375 0C9.62975 0 10.6233 0.41155 11.3559 1.14411C12.0884 1.87668 12.5 2.87025 12.5 3.90625C12.5 2.87025 12.9116 1.87668 13.6441 1.14411C14.3767 0.41155 15.3702 0 16.4062 0C17.4423 0 18.4358 0.41155 19.1684 1.14411C19.9009 1.87668 20.3125 2.87025 20.3125 3.90625V3.91563C20.3125 4.025 20.3125 4.3375 20.2531 4.6875H23.4375C23.8519 4.6875 24.2493 4.85212 24.5424 5.14515C24.8354 5.43817 25 5.8356 25 6.25V9.375C25 9.7894 24.8354 10.1868 24.5424 10.4799C24.2493 10.7729 23.8519 10.9375 23.4375 10.9375V22.6562C23.4375 23.2779 23.1906 23.874 22.751 24.3135C22.3115 24.7531 21.7154 25 21.0938 25H3.90625C3.28465 25 2.68851 24.7531 2.24897 24.3135C1.80943 23.874 1.5625 23.2779 1.5625 22.6562V10.9375C1.1481 10.9375 0.750671 10.7729 0.457646 10.4799C0.16462 10.1868 0 9.7894 0 9.375V6.25C0 5.8356 0.16462 5.43817 0.457646 5.14515C0.750671 4.85212 1.1481 4.6875 1.5625 4.6875H4.74688C4.70583 4.43229 4.68598 4.17411 4.6875 3.91563V3.90625ZM6.35625 4.6875H10.9375V3.90625C10.9375 3.59846 10.8769 3.29369 10.7591 3.00934C10.6413 2.72498 10.4687 2.46661 10.251 2.24897C10.0334 2.03133 9.77502 1.85869 9.49066 1.74091C9.20631 1.62312 8.90154 1.5625 8.59375 1.5625C8.28596 1.5625 7.98119 1.62312 7.69684 1.74091C7.41248 1.85869 7.15411 2.03133 6.93647 2.24897C6.71883 2.46661 6.54619 2.72498 6.42841 3.00934C6.31062 3.29369 6.25 3.59846 6.25 3.90625C6.25 4.03906 6.25313 4.33437 6.32031 4.57812L6.35625 4.6875ZM14.0625 4.6875H18.6438L18.6797 4.57812C18.7469 4.33437 18.75 4.03906 18.75 3.90625C18.75 3.28465 18.5031 2.68851 18.0635 2.24897C17.624 1.80943 17.0279 1.5625 16.4062 1.5625C15.7846 1.5625 15.1885 1.80943 14.749 2.24897C14.3094 2.68851 14.0625 3.28465 14.0625 3.90625V4.6875ZM1.5625 6.25V9.375H10.9375V6.25H1.5625ZM14.0625 6.25V9.375H23.4375V6.25H14.0625ZM21.875 10.9375H14.0625V23.4375H21.0938C21.301 23.4375 21.4997 23.3552 21.6462 23.2087C21.7927 23.0622 21.875 22.8635 21.875 22.6562V10.9375ZM10.9375 23.4375V10.9375H3.125V22.6562C3.125 22.8635 3.20731 23.0622 3.35382 23.2087C3.50034 23.3552 3.69905 23.4375 3.90625 23.4375H10.9375Z" fill="white"/>
<path d="M4.6875 3.90625C4.6875 2.87025 5.09905 1.87668 5.83161 1.14411C6.56418 0.41155 7.55775 0 8.59375 0C9.62975 0 10.6233 0.41155 11.3559 1.14411C12.0884 1.87668 12.5 2.87025 12.5 3.90625C12.5 2.87025 12.9116 1.87668 13.6441 1.14411C14.3767 0.41155 15.3702 0 16.4062 0C17.4423 0 18.4358 0.41155 19.1684 1.14411C19.9009 1.87668 20.3125 2.87025 20.3125 3.90625V3.91563C20.3125 4.025 20.3125 4.3375 20.2531 4.6875H23.4375C23.8519 4.6875 24.2493 4.85212 24.5424 5.14515C24.8354 5.43817 25 5.8356 25 6.25V9.375C25 9.7894 24.8354 10.1868 24.5424 10.4799C24.2493 10.7729 23.8519 10.9375 23.4375 10.9375V22.6562C23.4375 23.2779 23.1906 23.874 22.751 24.3135C22.3115 24.7531 21.7154 25 21.0938 25H3.90625C3.28465 25 2.68851 24.7531 2.24897 24.3135C1.80943 23.874 1.5625 23.2779 1.5625 22.6562V10.9375C1.1481 10.9375 0.750671 10.7729 0.457646 10.4799C0.16462 10.1868 0 9.7894 0 9.375V6.25C0 5.8356 0.16462 5.43817 0.457646 5.14515C0.750671 4.85212 1.1481 4.6875 1.5625 4.6875H4.74688C4.70583 4.43229 4.68598 4.17411 4.6875 3.91563V3.90625ZM6.35625 4.6875H10.9375V3.90625C10.9375 3.59846 10.8769 3.29369 10.7591 3.00934C10.6413 2.72498 10.4687 2.46661 10.251 2.24897C10.0334 2.03133 9.77502 1.85869 9.49066 1.74091C9.20631 1.62312 8.90154 1.5625 8.59375 1.5625C8.28596 1.5625 7.98119 1.62312 7.69684 1.74091C7.41248 1.85869 7.15411 2.03133 6.93647 2.24897C6.71883 2.46661 6.54619 2.72498 6.42841 3.00934C6.31062 3.29369 6.25 3.59846 6.25 3.90625C6.25 4.03906 6.25313 4.33437 6.32031 4.57812L6.35625 4.6875ZM14.0625 4.6875H18.6438L18.6797 4.57812C18.7469 4.33437 18.75 4.03906 18.75 3.90625C18.75 3.28465 18.5031 2.68851 18.0635 2.24897C17.624 1.80943 17.0279 1.5625 16.4062 1.5625C15.7846 1.5625 15.1885 1.80943 14.749 2.24897C14.3094 2.68851 14.0625 3.28465 14.0625 3.90625V4.6875ZM1.5625 6.25V9.375H10.9375V6.25H1.5625ZM14.0625 6.25V9.375H23.4375V6.25H14.0625ZM21.875 10.9375H14.0625V23.4375H21.0938C21.301 23.4375 21.4997 23.3552 21.6462 23.2087C21.7927 23.0622 21.875 22.8635 21.875 22.6562V10.9375ZM10.9375 23.4375V10.9375H3.125V22.6562C3.125 22.8635 3.20731 23.0622 3.35382 23.2087C3.50034 23.3552 3.69905 23.4375 3.90625 23.4375H10.9375Z" fill="white"/>
</g>
<defs>
<clipPath id="clip0_123_516">
<rect width="25" height="25" fill="white"/>
</clipPath>
</defs>
</svg>
