<svg width="25" height="25" viewBox="0 0 25 25" fill="none" xmlns="http://www.w3.org/2000/svg">
<path d="M13.0531 1.79062C12.9806 1.71786 12.8943 1.66014 12.7994 1.62075C12.7045 1.58137 12.6028 1.5611 12.5 1.5611C12.3972 1.5611 12.2955 1.58137 12.2006 1.62075C12.1057 1.66014 12.0194 1.71786 11.9469 1.79062L2.57188 11.1656C2.49937 11.2383 2.44191 11.3246 2.40276 11.4195C2.36362 11.5144 2.34357 11.6161 2.34375 11.7187V22.6562C2.34375 22.8634 2.42606 23.0622 2.57257 23.2087C2.71909 23.3552 2.9178 23.4375 3.125 23.4375H10.1563C10.3635 23.4375 10.5622 23.3552 10.7087 23.2087C10.8552 23.0622 10.9375 22.8634 10.9375 22.6562V16.4062H14.0625V22.6562C14.0625 22.8634 14.1448 23.0622 14.2913 23.2087C14.4378 23.3552 14.6366 23.4375 14.8438 23.4375H21.875C22.0822 23.4375 22.2809 23.3552 22.4274 23.2087C22.5739 23.0622 22.6563 22.8634 22.6563 22.6562V11.7187C22.6564 11.6161 22.6364 11.5144 22.5972 11.4195C22.5581 11.3246 22.5006 11.2383 22.4281 11.1656L20.3125 9.05156V3.90624C20.3125 3.69904 20.2302 3.50033 20.0837 3.35382C19.9372 3.2073 19.7385 3.12499 19.5313 3.12499H17.9688C17.7616 3.12499 17.5628 3.2073 17.4163 3.35382C17.2698 3.50033 17.1875 3.69904 17.1875 3.90624V5.92656L13.0531 1.79062ZM3.90625 21.875V12.0422L12.5 3.44843L21.0938 12.0422V21.875H15.625V15.625C15.625 15.4178 15.5427 15.2191 15.3962 15.0726C15.2497 14.9261 15.051 14.8437 14.8438 14.8437H10.1563C9.94905 14.8437 9.75034 14.9261 9.60383 15.0726C9.45731 15.2191 9.375 15.4178 9.375 15.625V21.875H3.90625Z" fill="white"/>
</svg>
