<svg width="43" height="35" viewBox="0 0 43 35" fill="none" xmlns="http://www.w3.org/2000/svg">
<path d="M38.8235 15.8944C37.2562 14.3189 35.1597 13.1485 32.7895 12.5258L33.6685 11.8103C33.9373 11.593 34.1259 11.3188 34.213 11.0186C34.3 10.7185 34.282 10.4045 34.161 10.1123C34.029 9.79021 33.7981 9.50088 33.4901 9.27182C33.1822 9.04276 32.8074 8.88157 32.4014 8.80355C31.9953 8.72553 31.5716 8.73327 31.1703 8.82603C30.769 8.9188 30.4034 9.09351 30.1084 9.33358L29.7599 9.61727L29.4113 9.33358C29.1163 9.09343 28.7508 8.91865 28.3494 8.82583C27.948 8.73302 27.5242 8.72526 27.1181 8.80328C26.712 8.88131 26.3372 9.04253 26.0292 9.27164C25.7212 9.50075 25.4903 9.79014 25.3583 10.1123C25.2373 10.4045 25.2193 10.7185 25.3063 11.0186C25.3933 11.3187 25.5819 11.593 25.8507 11.8103L26.3714 12.2341C26.0255 12.2905 25.6828 12.3583 25.3455 12.4375C25.3207 12.4434 25.2964 12.4505 25.2726 12.4586C24.4288 11.2212 23.2835 10.1369 21.9069 9.27238C20.5302 8.40782 18.9512 7.78112 17.2666 7.43066L19.3429 5.25779C19.4334 5.16308 19.4831 5.04676 19.4844 4.92675C19.4857 4.80675 19.4385 4.68974 19.35 4.59375L17.3344 2.40625C17.2718 2.33833 17.1906 2.2832 17.0973 2.24524C17.0041 2.20727 16.9012 2.1875 16.7969 2.1875H11.4219C11.3176 2.1875 11.2147 2.20727 11.1214 2.24524C11.0281 2.2832 10.947 2.33833 10.8844 2.40625L8.86875 4.59375C8.7803 4.68973 8.73309 4.80671 8.73438 4.92669C8.73567 5.04666 8.78539 5.16295 8.87589 5.25766L10.9522 7.43066C8.20421 8.00213 5.76815 9.30203 4.02833 11.1253C2.28852 12.9485 1.34399 15.1914 1.34375 17.5C1.34375 23.2294 7.07039 27.8906 14.1094 27.8906C15.3344 27.8912 16.553 27.7478 17.7277 27.4648C18.8298 29.088 20.4471 30.4405 22.4107 31.3812C24.3743 32.3218 26.6122 32.8162 28.8906 32.8125C35.9296 32.8125 41.6562 28.1513 41.6562 22.4219C41.654 20.0468 40.6545 17.7437 38.8235 15.8944ZM26.6327 10.4582C26.6922 10.3129 26.7963 10.1824 26.9353 10.079C27.0742 9.97569 27.2432 9.90297 27.4264 9.86777C27.6095 9.83257 27.8007 9.83607 27.9817 9.87793C28.1628 9.91979 28.3276 9.99862 28.4607 10.1069L29.2843 10.7773C29.4103 10.8799 29.5812 10.9375 29.7594 10.9375C29.9376 10.9375 30.1085 10.8799 30.2345 10.7773L31.0581 10.107C31.1912 9.99867 31.356 9.91982 31.5371 9.87795C31.7181 9.83607 31.9093 9.83257 32.0924 9.86776C32.2756 9.90295 32.4447 9.97567 32.5836 10.079C32.7225 10.1824 32.8267 10.3129 32.8862 10.4582C32.9274 10.5578 32.9335 10.6648 32.9038 10.7671C32.8741 10.8694 32.8098 10.9629 32.7182 11.037L29.7593 13.4454L26.8003 11.037C26.7088 10.9629 26.6445 10.8694 26.6149 10.7671C26.5853 10.6648 26.5914 10.5578 26.6327 10.4582ZM26.875 17.5C26.8747 16.8455 26.7985 16.1926 26.6472 15.5498C28.2184 15.2099 29.875 15.2337 31.4305 15.6185C32.986 16.0032 34.3787 16.7337 35.452 17.7277C36.5252 18.7216 37.2363 19.9397 37.5054 21.2447C37.7744 22.5497 37.5906 23.89 36.9748 25.1147C36.3589 26.3393 35.3354 27.3998 34.0194 28.1767C32.7033 28.9537 31.1471 29.4163 29.5256 29.5125C27.9042 29.6086 26.2819 29.3346 24.8414 28.7212C23.4009 28.1078 22.1993 27.1793 21.3718 26.0403C23.0691 25.085 24.4565 23.809 25.415 22.3215C26.3735 20.8341 26.8745 19.1796 26.875 17.5ZM27.5445 13.1893L28.8107 14.2199C27.972 14.2247 27.1372 14.3146 26.3258 14.4874C26.1954 14.1368 26.0423 13.792 25.8672 13.4546C26.4174 13.3321 26.978 13.2435 27.5445 13.1893ZM22.8438 17.5C22.843 18.4573 22.6049 19.4047 22.1439 20.2854C21.6829 21.1662 21.0084 21.9622 20.1607 22.6258C20.1583 22.5574 20.1562 22.4898 20.1562 22.4219C20.1532 21.4639 20.3896 20.5153 20.8509 19.634C21.3122 18.7526 21.9889 17.9568 22.8399 17.2949C22.8422 17.3633 22.8438 17.4316 22.8438 17.5ZM17.6345 24.0069C17.5243 23.4833 17.4688 22.9531 17.4688 22.4219C17.4673 20.9463 17.8981 19.4918 18.7252 18.1788C19.5524 16.8659 20.7522 15.7323 22.225 14.8721C22.4019 15.233 22.5418 15.6051 22.6434 15.9847C21.4463 16.7506 20.4792 17.7282 19.8154 18.8435C19.1517 19.9589 18.8087 21.1826 18.8125 22.4219C18.813 22.7651 18.8397 23.108 18.8924 23.4486C18.4926 23.6625 18.0719 23.8492 17.6345 24.0069ZM16.125 22.4219C16.1252 23.0765 16.2008 23.7297 16.3508 24.3728C14.7796 24.7129 13.123 24.6894 11.5673 24.3049C10.0117 23.9204 8.6187 23.1901 7.54515 22.1963C6.47159 21.2025 5.76006 19.9846 5.4906 18.6796C5.22115 17.3745 5.40446 16.0342 6.01993 14.8094C6.63539 13.5845 7.65858 12.5238 8.97436 11.7465C10.2902 10.9692 11.8463 10.5062 13.4678 10.4095C15.0893 10.3129 16.7117 10.5865 18.1525 11.1996C19.5933 11.8126 20.7954 12.7408 21.6235 13.8796C19.9258 14.8348 18.5385 16.1112 17.5808 17.5991C16.623 19.0871 16.1234 20.7421 16.125 22.4219ZM11.6095 5.46875L12.2317 6.9879L10.78 5.46875H11.6095ZM17.4388 5.46875L15.9871 6.9879L16.6093 5.46875H17.4388ZM15.1928 5.46875L14.1094 8.11426L13.026 5.46875H15.1928ZM13.4375 4.375L14.1094 3.64581L14.7812 4.375H13.4375ZM17.4688 4.375H16.4609L15.4531 3.28125H16.4609L17.4688 4.375ZM11.7578 3.28125H12.7656L11.7578 4.375H10.75L11.7578 3.28125ZM2.6875 17.5C2.68767 15.3516 3.60173 13.2696 5.27434 11.6076C6.94696 9.94569 9.27495 8.80641 11.8627 8.38339L12.8016 9.36585C10.2638 9.63619 7.94739 10.6823 6.32255 12.292C4.69772 13.9016 3.88616 15.9541 4.05258 18.033C4.21899 20.1119 5.35092 22.0613 7.21864 23.4857C9.08635 24.9101 11.5499 25.7027 14.1094 25.7027C16.6688 25.7027 19.1324 24.9101 21.0001 23.4857C22.8678 22.0613 23.9998 20.1119 24.1662 18.033C24.3326 15.9541 23.521 13.9016 21.8962 12.292C20.2714 10.6823 17.955 9.63619 15.4172 9.36585L16.356 8.38339C18.9438 8.80641 21.2718 9.94569 22.9444 11.6076C24.617 13.2696 25.5311 15.3516 25.5312 17.5C25.5312 22.6263 20.4074 26.7969 14.1094 26.7969C7.8113 26.7969 2.6875 22.6263 2.6875 17.5ZM28.8906 31.7187C26.8902 31.7219 24.924 31.296 23.1901 30.4838C21.4562 29.6717 20.0159 28.502 19.0141 27.0926C19.4292 26.9514 19.8349 26.7925 20.2294 26.6163C21.0946 27.7999 22.312 28.7871 23.7693 29.4869C25.2266 30.1867 26.877 30.5765 28.5681 30.6206C30.2593 30.6646 31.9368 30.3613 33.4461 29.7387C34.9553 29.1162 36.2477 28.1943 37.2041 27.0582C38.1605 25.9221 38.75 24.6082 38.9183 23.2378C39.0867 21.8674 38.8285 20.4846 38.1674 19.2168C37.5064 17.9491 36.4638 16.8372 35.1359 15.9837C33.808 15.1302 32.2374 14.5625 30.5691 14.3331L31.7041 13.4094C34.1655 13.9192 36.3481 15.082 37.907 16.7141C39.4659 18.3462 40.3123 20.3546 40.3125 22.4219C40.3125 27.5482 35.1887 31.7187 28.8906 31.7187Z" fill="#B9740C"/>
<path d="M31.5782 27.9826C31.6707 27.9826 31.7622 27.967 31.8469 27.9367C32.1001 27.8466 32.3468 27.745 32.586 27.6324C32.6646 27.5975 32.7339 27.5501 32.7897 27.493C32.8455 27.436 32.8868 27.3704 32.911 27.3002C32.9352 27.23 32.9419 27.1566 32.9307 27.0842C32.9196 27.0118 32.8907 26.942 32.8459 26.8789C32.8011 26.8157 32.7412 26.7605 32.6698 26.7165C32.5984 26.6724 32.5169 26.6405 32.43 26.6225C32.3432 26.6044 32.2528 26.6007 32.1642 26.6116C32.0756 26.6224 31.9906 26.6476 31.9141 26.6856C31.7184 26.7776 31.5165 26.8607 31.3094 26.9344C31.1679 26.9846 31.052 27.073 30.9811 27.1847C30.9102 27.2963 30.8888 27.4244 30.9203 27.5474C30.9518 27.6704 31.0345 27.7808 31.1543 27.8601C31.2741 27.9393 31.4238 27.9826 31.5782 27.9826Z" fill="#B9740C"/>
<path d="M33.8625 26.1406C34.005 26.2277 34.1841 26.2652 34.3605 26.2448C34.5369 26.2244 34.6961 26.1478 34.8031 26.0319C35.7668 24.9922 36.286 23.7243 36.2813 22.4219C36.2813 22.2768 36.2105 22.1377 36.0845 22.0352C35.9585 21.9326 35.7876 21.875 35.6094 21.875C35.4312 21.875 35.2603 21.9326 35.1343 22.0352C35.0083 22.1377 34.9375 22.2768 34.9375 22.4219C34.9416 23.4873 34.5171 24.5244 33.7289 25.375C33.6219 25.491 33.5759 25.6368 33.6009 25.7803C33.626 25.9239 33.7201 26.0535 33.8625 26.1406Z" fill="#B9740C"/>
</svg>
