<svg width="40" height="33" viewBox="0 0 40 33" fill="none" xmlns="http://www.w3.org/2000/svg">
<g clip-path="url(#clip0_13_437)">
<path d="M39.5826 28.4794C38.7996 28.0575 38.0535 27.838 37.2345 27.7886C36.3665 27.7362 35.6147 27.2697 35.3193 26.6002L34.7663 25.3466C34.6556 25.0957 34.3194 24.9663 34.0153 25.0576C33.7112 25.149 33.5544 25.4264 33.6651 25.6772L34.2182 26.9308C34.6711 27.9576 35.8215 28.6728 37.1491 28.7529C37.6151 28.781 38.0427 28.881 38.4882 29.0699L31.792 31.0805C31.9862 30.6996 32.2358 30.3962 32.5709 30.1275C33.5254 29.3621 33.8494 28.2042 33.3964 27.1776L31.0404 21.8372C31.1798 21.8031 31.3187 21.7666 31.4564 21.7253C31.5938 21.684 31.729 21.639 31.8624 21.591L32.6773 23.4381C32.7639 23.6343 32.9885 23.7563 33.228 23.7563C33.2946 23.7563 33.3622 23.7469 33.4283 23.727C33.7324 23.6357 33.8892 23.3583 33.7785 23.1074L32.9051 21.1279C34.1105 20.4806 35.0659 19.541 35.6207 18.4272C36.3828 16.8971 36.3281 15.1618 35.4704 13.6665L30.9998 5.87072C30.7334 5.40653 30.0915 5.18894 29.5064 5.36451L20.2028 8.15823C20.131 8.17975 20.0635 8.20637 20 8.23725C19.9366 8.20637 19.8689 8.17969 19.7972 8.15816L16.9924 7.31595C16.688 7.22469 16.3521 7.35405 16.2414 7.6049C16.1307 7.85575 16.2876 8.13316 16.5916 8.22449L19.3964 9.06669C19.4094 9.07063 19.4166 9.08191 19.4131 9.09293L18.3228 12.5265C17.8565 12.157 17.299 11.8678 16.6844 11.6843C15.4225 11.3074 14.0221 11.407 12.8606 11.9291C12.3757 10.9138 11.3788 10.0961 10.1175 9.71741C9.50737 9.53417 8.85878 9.46089 8.2176 9.49595L10.0595 6.28425C10.0654 6.27394 10.0796 6.26917 10.0927 6.27304L13.8795 7.41012C14.1839 7.50139 14.5199 7.37203 14.6305 7.12118C14.7412 6.87033 14.5843 6.59292 14.2803 6.50159L10.4935 5.36451C9.9087 5.18894 9.26659 5.40647 9.00026 5.87079L4.5294 13.6665C3.67182 15.1618 3.61713 16.8971 4.37932 18.4272C4.93409 19.541 5.88948 20.4806 7.09479 21.1279L4.68049 26.6001C4.38518 27.2697 3.63346 27.7361 2.76542 27.7885C1.94643 27.838 1.20026 28.0575 0.417213 28.4793C0.123463 28.6376 -0.0340374 28.9143 0.00604077 29.2016C0.0461189 29.4881 0.275103 29.7273 0.603619 29.826L8.31417 32.1413C8.41768 32.1724 8.52432 32.1875 8.63002 32.1875C8.85987 32.1875 9.08448 32.1158 9.25838 31.98C9.51299 31.7813 9.60799 31.4857 9.50628 31.2087C9.2351 30.4702 8.83456 29.9064 8.24573 29.4343C7.62167 28.9339 7.40917 28.1778 7.70456 27.5083L10.1189 22.0356C10.4065 22.0644 10.6955 22.0797 10.9843 22.0797C12.1292 22.0797 13.2709 21.8536 14.3031 21.4072C16.0791 20.6393 17.3892 19.281 17.8974 17.6807L19.9999 11.0598L22.1023 17.6806C22.4705 18.8402 23.2435 19.865 24.3376 20.6443C24.5826 20.8188 24.9525 20.7965 25.164 20.5943C25.3755 20.3923 25.3483 20.087 25.1035 19.9125C24.1896 19.2616 23.5438 18.4051 23.2359 17.4356L22.7409 15.8768C22.981 15.9085 23.2232 15.9253 23.4658 15.9253C24.0064 15.9253 24.5477 15.8472 25.066 15.6907C26.5692 15.2369 27.6951 14.1597 28.0244 12.8685C28.044 12.8247 28.0557 12.7793 28.0593 12.7336C28.3096 11.7548 29.131 10.9687 30.2721 10.6243C30.9617 10.416 31.6884 10.392 32.3876 10.5514L34.4112 14.0799C35.1282 15.33 35.1739 16.7806 34.5367 18.0597C33.8996 19.3388 32.6307 20.3438 31.0554 20.8168C29.8817 21.1693 28.6281 21.2112 27.4301 20.9381C27.1178 20.867 26.7954 21.018 26.7092 21.2753C26.623 21.5326 26.806 21.7989 27.1178 21.87C27.7417 22.0122 28.3779 22.0831 29.0135 22.0831C29.3035 22.0831 29.5933 22.0675 29.8818 22.038L32.2951 27.5082C32.5905 28.1777 32.3782 28.9337 31.7539 29.4341C31.1652 29.9063 30.7646 30.4701 30.4934 31.2086C30.3917 31.4856 30.4867 31.7811 30.7413 31.9799C30.9153 32.1157 31.1399 32.1875 31.3697 32.1875C31.4753 32.1875 31.5821 32.1724 31.6855 32.1413L39.3961 29.826C39.7247 29.7273 39.9537 29.488 39.9936 29.2015C40.0339 28.9143 39.8763 28.6376 39.5826 28.4794ZM9.71667 10.626C10.7483 10.9358 11.5424 11.6384 11.8596 12.4977C10.9403 13.0018 9.80245 13.1194 8.74909 12.8047C8.01713 12.5862 7.40174 12.1753 6.99003 11.6366L7.61104 10.5538C8.30698 10.396 9.0301 10.4198 9.71667 10.626ZM6.60346 27.1776C6.15057 28.2042 6.47463 29.3621 7.42909 30.1275C7.76417 30.3962 8.01378 30.6996 8.20799 31.0805L1.51167 29.0698C1.95721 28.8809 2.38479 28.7809 2.85088 28.7528C4.17838 28.6727 5.32878 27.9576 5.78174 26.9308L8.1376 21.5911C8.27096 21.639 8.4062 21.684 8.54362 21.7254C8.68112 21.7667 8.8201 21.803 8.95963 21.837L6.60346 27.1776ZM16.764 17.4356C16.3392 18.7734 15.244 19.9089 13.7592 20.5509C12.2746 21.1929 10.5196 21.2898 8.9444 20.8168C7.36917 20.3438 6.10034 19.3388 5.46315 18.0598C4.82604 16.7806 4.87174 15.33 5.58862 14.0799L6.42385 12.6235C6.93885 13.1125 7.59823 13.4892 8.35003 13.7137C9.8551 14.1632 11.557 13.9351 12.8153 13.1206C12.8644 13.0975 12.9087 13.0688 12.9471 13.0358C13.9014 12.4187 15.1433 12.2522 16.2855 12.5934C16.9763 12.7996 17.5516 13.1664 17.963 13.6593L16.764 17.4356ZM24.6632 14.7828C23.9322 15.0035 23.1407 15.0151 22.4056 14.8207L22.0376 13.662C22.4478 13.1721 23.0204 12.8068 23.7071 12.6007C24.7385 12.2908 25.8944 12.4081 26.8068 12.898C26.4955 13.7717 25.7154 14.4652 24.6632 14.7828ZM29.8692 9.71645C28.6088 10.0969 27.6135 10.9159 27.1307 11.9317C25.9682 11.4111 24.5674 11.3133 23.3063 11.6921C22.6964 11.8753 22.1419 12.1624 21.6779 12.529L20.5869 9.09306C20.5834 9.08197 20.5906 9.07063 20.6036 9.06676L29.9073 6.2731C29.9203 6.26924 29.9346 6.27407 29.9406 6.28432L31.7804 9.49247C31.1353 9.45676 30.4829 9.53108 29.8692 9.71645Z" fill="#B9740C"/>
<path d="M37.9474 15.7815C37.9468 15.7815 37.9462 15.7815 37.9456 15.7815C37.6229 15.7815 37.3608 15.997 37.3597 16.2635C37.3587 16.5305 37.6203 16.7476 37.944 16.7483L38.7697 16.7504H38.7714C39.0942 16.7504 39.3563 16.5349 39.3573 16.2684C39.3583 16.0015 39.0968 15.7844 38.7731 15.7836L37.9474 15.7815Z" fill="#B9740C"/>
<path d="M37.5944 15.0458C37.6969 15.0458 37.8007 15.0236 37.8949 14.977L38.6112 14.6231C38.8888 14.486 38.979 14.1891 38.8128 13.96C38.6464 13.731 38.2865 13.6566 38.009 13.7937L37.2928 14.1477C37.0151 14.2848 36.9249 14.5817 37.0912 14.8108C37.201 14.962 37.3951 15.0458 37.5944 15.0458Z" fill="#B9740C"/>
<path d="M37.2785 18.3791L37.9924 18.7365C38.0875 18.7841 38.1923 18.8068 38.2959 18.8068C38.4939 18.8068 38.6871 18.724 38.7973 18.5742C38.9652 18.346 38.8771 18.0486 38.6004 17.9101L37.8865 17.5526C37.6098 17.4141 37.2496 17.4868 37.0816 17.715C36.9136 17.9433 37.0019 18.2406 37.2785 18.3791Z" fill="#B9740C"/>
<path d="M1.2282 16.7512H1.23101L2.05672 16.7481C2.38031 16.7468 2.6414 16.5294 2.63992 16.2624C2.63828 15.9955 2.37843 15.779 2.05125 15.7813L1.22554 15.7844C0.90195 15.7857 0.640856 16.0031 0.64234 16.2701C0.643825 16.5363 0.905856 16.7512 1.2282 16.7512Z" fill="#B9740C"/>
<path d="M1.38515 14.6238L2.10218 14.9767C2.19624 15.023 2.29968 15.045 2.40187 15.045C2.6014 15.045 2.79593 14.9609 2.90554 14.8093C3.0714 14.58 2.98046 14.2833 2.70257 14.1464L1.98554 13.7935C1.70765 13.6567 1.34788 13.7316 1.18218 13.9609C1.0164 14.1902 1.10734 14.4869 1.38515 14.6238Z" fill="#B9740C"/>
<path d="M2.1158 17.5522L1.40259 17.9107C1.12627 18.0496 1.03877 18.347 1.20705 18.575C1.31744 18.7245 1.51033 18.807 1.70799 18.807C1.81189 18.807 1.91713 18.7842 2.01236 18.7363L2.72556 18.3778C3.00189 18.239 3.08939 17.9415 2.92111 17.7135C2.75267 17.4856 2.3922 17.4133 2.1158 17.5522Z" fill="#B9740C"/>
<path d="M19.2408 6.78486C19.4521 6.95862 19.7293 7.04544 20.0064 7.04544C20.2848 7.04544 20.5631 6.95785 20.7747 6.78273L23.6027 4.44179C24.6067 3.61067 24.604 2.26057 23.5966 1.43222H23.5966C22.6052 0.61708 21.0044 0.606381 19.9968 1.39845C18.986 0.609023 17.3853 0.624299 16.3971 1.44221C15.393 2.27333 15.3958 3.62343 16.4033 4.45172L19.2408 6.78486ZM17.2273 2.12464C17.4926 1.90492 17.8458 1.78362 18.2218 1.7831H18.2242C18.5993 1.7831 18.952 1.90337 19.2178 2.12187L19.5844 2.42338C19.8137 2.61184 20.1846 2.61139 20.4131 2.42222L20.7785 2.11974C21.3266 1.66618 22.2195 1.66502 22.7693 2.11703H22.7692C23.319 2.56911 23.3205 3.30581 22.7726 3.75936L20.0062 6.04932L17.2305 3.76697C16.9641 3.54802 16.8171 3.25656 16.8165 2.94642C16.8158 2.63627 16.9617 2.34436 17.2273 2.12464Z" fill="#B9740C"/>
</g>
<defs>
<clipPath id="clip0_13_437">
<rect width="40" height="33" fill="white"/>
</clipPath>
</defs>
</svg>
