<svg width="25" height="25" viewBox="0 0 25 25" fill="none" xmlns="http://www.w3.org/2000/svg">
<g clip-path="url(#clip0_123_503)">
<path d="M9.37812 8.59375C9.37812 9.21535 9.13119 9.81149 8.69166 10.251C8.25212 10.6906 7.65598 10.9375 7.03437 10.9375C6.41277 10.9375 5.81663 10.6906 5.37709 10.251C4.93755 9.81149 4.69062 9.21535 4.69062 8.59375C4.69062 7.97215 4.93755 7.37601 5.37709 6.93647C5.81663 6.49693 6.41277 6.25 7.03437 6.25C7.65598 6.25 8.25212 6.49693 8.69166 6.93647C9.13119 7.37601 9.37812 7.97215 9.37812 8.59375Z" fill="white"/>
<path d="M3.12812 1.5625C2.29932 1.5625 1.50447 1.89174 0.918416 2.47779C0.332364 3.06384 0.00312424 3.8587 0.00312424 4.6875V20.3125C0.00312424 21.1413 0.332364 21.9362 0.918416 22.5222C1.50447 23.1083 2.29932 23.4375 3.12812 23.4375H21.8781C22.7069 23.4375 23.5018 23.1083 24.0878 22.5222C24.6739 21.9362 25.0031 21.1413 25.0031 20.3125V4.6875C25.0031 3.8587 24.6739 3.06384 24.0878 2.47779C23.5018 1.89174 22.7069 1.5625 21.8781 1.5625H3.12812ZM21.8781 3.125C22.2925 3.125 22.69 3.28962 22.983 3.58265C23.276 3.87567 23.4406 4.2731 23.4406 4.6875V14.8438L17.5391 11.8016C17.3925 11.7282 17.2266 11.7027 17.0648 11.7288C16.903 11.7549 16.7535 11.8312 16.6375 11.9469L10.8406 17.7437L6.68437 14.975C6.53431 14.8751 6.35431 14.8302 6.1749 14.8478C5.99549 14.8655 5.82771 14.9446 5.7 15.0719L1.56562 18.75V4.6875C1.56562 4.2731 1.73024 3.87567 2.02327 3.58265C2.3163 3.28962 2.71372 3.125 3.12812 3.125H21.8781Z" fill="white"/>
<path d="M3.12817 1.5625C2.29937 1.5625 1.50452 1.89174 0.918465 2.47779C0.332414 3.06384 0.00317383 3.8587 0.00317383 4.6875V20.3125C0.00317383 21.1413 0.332414 21.9362 0.918465 22.5222C1.50452 23.1083 2.29937 23.4375 3.12817 23.4375H21.8782C22.707 23.4375 23.5018 23.1083 24.0879 22.5222C24.6739 21.9362 25.0032 21.1413 25.0032 20.3125V4.6875C25.0032 3.8587 24.6739 3.06384 24.0879 2.47779C23.5018 1.89174 22.707 1.5625 21.8782 1.5625H3.12817ZM21.8782 3.125C22.2926 3.125 22.69 3.28962 22.983 3.58265C23.2761 3.87567 23.4407 4.2731 23.4407 4.6875V14.8438L17.5391 11.8016C17.3926 11.7282 17.2267 11.7027 17.0649 11.7288C16.9031 11.7549 16.7536 11.8312 16.6375 11.9469L10.8407 17.7437L6.68442 14.975C6.53436 14.8751 6.35436 14.8302 6.17495 14.8478C5.99554 14.8655 5.82776 14.9446 5.70005 15.0719L1.56567 18.75V4.6875C1.56567 4.2731 1.73029 3.87567 2.02332 3.58265C2.31635 3.28962 2.71377 3.125 3.12817 3.125H21.8782Z" fill="white"/>
<path d="M9.37817 8.59375C9.37817 9.21535 9.13124 9.81149 8.69171 10.251C8.25217 10.6906 7.65602 10.9375 7.03442 10.9375C6.41282 10.9375 5.81668 10.6906 5.37714 10.251C4.9376 9.81149 4.69067 9.21535 4.69067 8.59375C4.69067 7.97215 4.9376 7.37601 5.37714 6.93647C5.81668 6.49693 6.41282 6.25 7.03442 6.25C7.65602 6.25 8.25217 6.49693 8.69171 6.93647C9.13124 7.37601 9.37817 7.97215 9.37817 8.59375Z" fill="white"/>
</g>
<defs>
<clipPath id="clip0_123_503">
<rect width="25" height="25" fill="white"/>
</clipPath>
</defs>
</svg>
