<svg width="25" height="25" viewBox="0 0 25 25" fill="none" xmlns="http://www.w3.org/2000/svg">
<g clip-path="url(#clip0_123_513)">
<path d="M11.9469 24.7719C12.0194 24.8446 12.1057 24.9024 12.2006 24.9417C12.2955 24.9811 12.3972 25.0014 12.5 25.0014C12.6028 25.0014 12.7045 24.9811 12.7994 24.9417C12.8943 24.9024 12.9806 24.8446 13.0531 24.7719L15.9484 21.875H21.875C22.7038 21.875 23.4987 21.5458 24.0847 20.9597C24.6708 20.3737 25 19.5788 25 18.75V4.6875C25 3.8587 24.6708 3.06384 24.0847 2.47779C23.4987 1.89174 22.7038 1.5625 21.875 1.5625H3.125C2.2962 1.5625 1.50134 1.89174 0.915291 2.47779C0.32924 3.06384 0 3.8587 0 4.6875L0 18.75C0 19.5788 0.32924 20.3737 0.915291 20.9597C1.50134 21.5458 2.2962 21.875 3.125 21.875H9.05156L11.9469 24.7719ZM1.5625 14.0625V9.375H23.4375V14.0625H1.5625ZM23.4375 15.625V18.75C23.4375 19.1644 23.2729 19.5618 22.9799 19.8549C22.6868 20.1479 22.2894 20.3125 21.875 20.3125H15.9484C15.5341 20.3126 15.1367 20.4773 14.8438 20.7703L12.5 23.1141L10.1562 20.7703C9.86329 20.4773 9.46593 20.3126 9.05156 20.3125H3.125C2.7106 20.3125 2.31317 20.1479 2.02015 19.8549C1.72712 19.5618 1.5625 19.1644 1.5625 18.75V15.625H23.4375ZM23.4375 7.8125H1.5625V4.6875C1.5625 4.2731 1.72712 3.87567 2.02015 3.58265C2.31317 3.28962 2.7106 3.125 3.125 3.125H21.875C22.2894 3.125 22.6868 3.28962 22.9799 3.58265C23.2729 3.87567 23.4375 4.2731 23.4375 4.6875V7.8125ZM3.125 17.9688C3.125 18.176 3.20731 18.3747 3.35382 18.5212C3.50034 18.6677 3.69905 18.75 3.90625 18.75H16.4062C16.6135 18.75 16.8122 18.6677 16.9587 18.5212C17.1052 18.3747 17.1875 18.176 17.1875 17.9688C17.1875 17.7615 17.1052 17.5628 16.9587 17.4163C16.8122 17.2698 16.6135 17.1875 16.4062 17.1875H3.90625C3.69905 17.1875 3.50034 17.2698 3.35382 17.4163C3.20731 17.5628 3.125 17.7615 3.125 17.9688ZM3.125 11.7188C3.125 11.926 3.20731 12.1247 3.35382 12.2712C3.50034 12.4177 3.69905 12.5 3.90625 12.5H21.0938C21.301 12.5 21.4997 12.4177 21.6462 12.2712C21.7927 12.1247 21.875 11.926 21.875 11.7188C21.875 11.5115 21.7927 11.3128 21.6462 11.1663C21.4997 11.0198 21.301 10.9375 21.0938 10.9375H3.90625C3.69905 10.9375 3.50034 11.0198 3.35382 11.1663C3.20731 11.3128 3.125 11.5115 3.125 11.7188ZM3.125 5.46875C3.125 5.67595 3.20731 5.87466 3.35382 6.02118C3.50034 6.16769 3.69905 6.25 3.90625 6.25H13.2812C13.4885 6.25 13.6872 6.16769 13.8337 6.02118C13.9802 5.87466 14.0625 5.67595 14.0625 5.46875C14.0625 5.26155 13.9802 5.06284 13.8337 4.91632C13.6872 4.76981 13.4885 4.6875 13.2812 4.6875H3.90625C3.69905 4.6875 3.50034 4.76981 3.35382 4.91632C3.20731 5.06284 3.125 5.26155 3.125 5.46875Z" fill="white"/>
<path d="M11.9469 24.7719C12.0194 24.8446 12.1057 24.9024 12.2006 24.9417C12.2955 24.9811 12.3972 25.0014 12.5 25.0014C12.6028 25.0014 12.7045 24.9811 12.7994 24.9417C12.8943 24.9024 12.9806 24.8446 13.0531 24.7719L15.9484 21.875H21.875C22.7038 21.875 23.4987 21.5458 24.0847 20.9597C24.6708 20.3737 25 19.5788 25 18.75V4.6875C25 3.8587 24.6708 3.06384 24.0847 2.47779C23.4987 1.89174 22.7038 1.5625 21.875 1.5625H3.125C2.2962 1.5625 1.50134 1.89174 0.915291 2.47779C0.32924 3.06384 0 3.8587 0 4.6875L0 18.75C0 19.5788 0.32924 20.3737 0.915291 20.9597C1.50134 21.5458 2.2962 21.875 3.125 21.875H9.05156L11.9469 24.7719ZM1.5625 14.0625V9.375H23.4375V14.0625H1.5625ZM23.4375 15.625V18.75C23.4375 19.1644 23.2729 19.5618 22.9799 19.8549C22.6868 20.1479 22.2894 20.3125 21.875 20.3125H15.9484C15.5341 20.3126 15.1367 20.4773 14.8438 20.7703L12.5 23.1141L10.1562 20.7703C9.86329 20.4773 9.46593 20.3126 9.05156 20.3125H3.125C2.7106 20.3125 2.31317 20.1479 2.02015 19.8549C1.72712 19.5618 1.5625 19.1644 1.5625 18.75V15.625H23.4375ZM23.4375 7.8125H1.5625V4.6875C1.5625 4.2731 1.72712 3.87567 2.02015 3.58265C2.31317 3.28962 2.7106 3.125 3.125 3.125H21.875C22.2894 3.125 22.6868 3.28962 22.9799 3.58265C23.2729 3.87567 23.4375 4.2731 23.4375 4.6875V7.8125ZM3.125 17.9688C3.125 18.176 3.20731 18.3747 3.35382 18.5212C3.50034 18.6677 3.69905 18.75 3.90625 18.75H16.4062C16.6135 18.75 16.8122 18.6677 16.9587 18.5212C17.1052 18.3747 17.1875 18.176 17.1875 17.9688C17.1875 17.7615 17.1052 17.5628 16.9587 17.4163C16.8122 17.2698 16.6135 17.1875 16.4062 17.1875H3.90625C3.69905 17.1875 3.50034 17.2698 3.35382 17.4163C3.20731 17.5628 3.125 17.7615 3.125 17.9688ZM3.125 11.7188C3.125 11.926 3.20731 12.1247 3.35382 12.2712C3.50034 12.4177 3.69905 12.5 3.90625 12.5H21.0938C21.301 12.5 21.4997 12.4177 21.6462 12.2712C21.7927 12.1247 21.875 11.926 21.875 11.7188C21.875 11.5115 21.7927 11.3128 21.6462 11.1663C21.4997 11.0198 21.301 10.9375 21.0938 10.9375H3.90625C3.69905 10.9375 3.50034 11.0198 3.35382 11.1663C3.20731 11.3128 3.125 11.5115 3.125 11.7188ZM3.125 5.46875C3.125 5.67595 3.20731 5.87466 3.35382 6.02118C3.50034 6.16769 3.69905 6.25 3.90625 6.25H13.2812C13.4885 6.25 13.6872 6.16769 13.8337 6.02118C13.9802 5.87466 14.0625 5.67595 14.0625 5.46875C14.0625 5.26155 13.9802 5.06284 13.8337 4.91632C13.6872 4.76981 13.4885 4.6875 13.2812 4.6875H3.90625C3.69905 4.6875 3.50034 4.76981 3.35382 4.91632C3.20731 5.06284 3.125 5.26155 3.125 5.46875Z" fill="white"/>
</g>
<defs>
<clipPath id="clip0_123_513">
<rect width="25" height="25" fill="white"/>
</clipPath>
</defs>
</svg>
